<mxfile host="app.diagrams.net" agent="Mozilla/5.0 (Macintosh; Intel Mac OS X 10_15_7) AppleWebKit/605.1.15 (KHTML, like Gecko) Version/16.4 Safari/605.1.15" version="25.0.3" pages="4">
  <diagram name="Даталогическая модель" id="S97Vu_BdASqq8eOY5i_9">
    <mxGraphModel dx="1224" dy="780" grid="1" gridSize="10" guides="1" tooltips="1" connect="1" arrows="1" fold="1" page="1" pageScale="1" pageWidth="827" pageHeight="1169" math="0" shadow="0">
      <root>
        <mxCell id="0" />
        <mxCell id="1" parent="0" />
        <mxCell id="SLaX8ruqfgfBPDcgRT3M-1" value="country" style="swimlane;fontStyle=0;childLayout=stackLayout;horizontal=1;startSize=30;horizontalStack=0;resizeParent=1;resizeParentMax=0;resizeLast=0;collapsible=1;marginBottom=0;whiteSpace=wrap;html=1;" vertex="1" parent="1">
          <mxGeometry x="80" y="180" width="140" height="90" as="geometry" />
        </mxCell>
        <mxCell id="SLaX8ruqfgfBPDcgRT3M-2" value="id" style="text;strokeColor=none;fillColor=none;align=left;verticalAlign=middle;spacingLeft=4;spacingRight=4;overflow=hidden;points=[[0,0.5],[1,0.5]];portConstraint=eastwest;rotatable=0;whiteSpace=wrap;html=1;" vertex="1" parent="SLaX8ruqfgfBPDcgRT3M-1">
          <mxGeometry y="30" width="140" height="30" as="geometry" />
        </mxCell>
        <mxCell id="SLaX8ruqfgfBPDcgRT3M-3" value="name" style="text;strokeColor=none;fillColor=none;align=left;verticalAlign=middle;spacingLeft=4;spacingRight=4;overflow=hidden;points=[[0,0.5],[1,0.5]];portConstraint=eastwest;rotatable=0;whiteSpace=wrap;html=1;" vertex="1" parent="SLaX8ruqfgfBPDcgRT3M-1">
          <mxGeometry y="60" width="140" height="30" as="geometry" />
        </mxCell>
        <mxCell id="SLaX8ruqfgfBPDcgRT3M-5" value="coach" style="swimlane;fontStyle=0;childLayout=stackLayout;horizontal=1;startSize=30;horizontalStack=0;resizeParent=1;resizeParentMax=0;resizeLast=0;collapsible=1;marginBottom=0;whiteSpace=wrap;html=1;" vertex="1" parent="1">
          <mxGeometry x="290" y="120" width="140" height="210" as="geometry" />
        </mxCell>
        <mxCell id="SLaX8ruqfgfBPDcgRT3M-6" value="id" style="text;strokeColor=none;fillColor=none;align=left;verticalAlign=middle;spacingLeft=4;spacingRight=4;overflow=hidden;points=[[0,0.5],[1,0.5]];portConstraint=eastwest;rotatable=0;whiteSpace=wrap;html=1;" vertex="1" parent="SLaX8ruqfgfBPDcgRT3M-5">
          <mxGeometry y="30" width="140" height="30" as="geometry" />
        </mxCell>
        <mxCell id="SLaX8ruqfgfBPDcgRT3M-7" value="photo" style="text;strokeColor=none;fillColor=none;align=left;verticalAlign=middle;spacingLeft=4;spacingRight=4;overflow=hidden;points=[[0,0.5],[1,0.5]];portConstraint=eastwest;rotatable=0;whiteSpace=wrap;html=1;" vertex="1" parent="SLaX8ruqfgfBPDcgRT3M-5">
          <mxGeometry y="60" width="140" height="30" as="geometry" />
        </mxCell>
        <mxCell id="SLaX8ruqfgfBPDcgRT3M-8" value="surname" style="text;strokeColor=none;fillColor=none;align=left;verticalAlign=middle;spacingLeft=4;spacingRight=4;overflow=hidden;points=[[0,0.5],[1,0.5]];portConstraint=eastwest;rotatable=0;whiteSpace=wrap;html=1;" vertex="1" parent="SLaX8ruqfgfBPDcgRT3M-5">
          <mxGeometry y="90" width="140" height="30" as="geometry" />
        </mxCell>
        <mxCell id="SLaX8ruqfgfBPDcgRT3M-17" value="name&lt;span style=&quot;caret-color: rgba(0, 0, 0, 0); color: rgba(0, 0, 0, 0); font-family: monospace; font-size: 0px; white-space: nowrap;&quot;&gt;%3CmxGraphModel%3E%3Croot%3E%3CmxCell%20id%3D%220%22%2F%3E%3CmxCell%20id%3D%221%22%20parent%3D%220%22%2F%3E%3CmxCell%20id%3D%222%22%20value%3D%22photo%22%20style%3D%22text%3BstrokeColor%3Dnone%3BfillColor%3Dnone%3Balign%3Dleft%3BverticalAlign%3Dmiddle%3BspacingLeft%3D4%3BspacingRight%3D4%3Boverflow%3Dhidden%3Bpoints%3D%5B%5B0%2C0.5%5D%2C%5B1%2C0.5%5D%5D%3BportConstraint%3Deastwest%3Brotatable%3D0%3BwhiteSpace%3Dwrap%3Bhtml%3D1%3B%22%20vertex%3D%221%22%20parent%3D%221%22%3E%3CmxGeometry%20x%3D%22290%22%20y%3D%22240%22%20width%3D%22140%22%20height%3D%2230%22%20as%3D%22geometry%22%2F%3E%3C%2FmxCell%3E%3C%2Froot%3E%3C%2FmxGraphModel%3E&lt;/span&gt;" style="text;strokeColor=none;fillColor=none;align=left;verticalAlign=middle;spacingLeft=4;spacingRight=4;overflow=hidden;points=[[0,0.5],[1,0.5]];portConstraint=eastwest;rotatable=0;whiteSpace=wrap;html=1;" vertex="1" parent="SLaX8ruqfgfBPDcgRT3M-5">
          <mxGeometry y="120" width="140" height="30" as="geometry" />
        </mxCell>
        <mxCell id="SLaX8ruqfgfBPDcgRT3M-18" value="middle_name" style="text;strokeColor=none;fillColor=none;align=left;verticalAlign=middle;spacingLeft=4;spacingRight=4;overflow=hidden;points=[[0,0.5],[1,0.5]];portConstraint=eastwest;rotatable=0;whiteSpace=wrap;html=1;" vertex="1" parent="SLaX8ruqfgfBPDcgRT3M-5">
          <mxGeometry y="150" width="140" height="30" as="geometry" />
        </mxCell>
        <mxCell id="SLaX8ruqfgfBPDcgRT3M-19" value="country_id" style="text;strokeColor=none;fillColor=none;align=left;verticalAlign=middle;spacingLeft=4;spacingRight=4;overflow=hidden;points=[[0,0.5],[1,0.5]];portConstraint=eastwest;rotatable=0;whiteSpace=wrap;html=1;" vertex="1" parent="SLaX8ruqfgfBPDcgRT3M-5">
          <mxGeometry y="180" width="140" height="30" as="geometry" />
        </mxCell>
        <mxCell id="SLaX8ruqfgfBPDcgRT3M-9" value="club" style="swimlane;fontStyle=0;childLayout=stackLayout;horizontal=1;startSize=30;horizontalStack=0;resizeParent=1;resizeParentMax=0;resizeLast=0;collapsible=1;marginBottom=0;whiteSpace=wrap;html=1;" vertex="1" parent="1">
          <mxGeometry x="80" y="360" width="140" height="210" as="geometry" />
        </mxCell>
        <mxCell id="SLaX8ruqfgfBPDcgRT3M-10" value="id" style="text;strokeColor=none;fillColor=none;align=left;verticalAlign=middle;spacingLeft=4;spacingRight=4;overflow=hidden;points=[[0,0.5],[1,0.5]];portConstraint=eastwest;rotatable=0;whiteSpace=wrap;html=1;" vertex="1" parent="SLaX8ruqfgfBPDcgRT3M-9">
          <mxGeometry y="30" width="140" height="30" as="geometry" />
        </mxCell>
        <mxCell id="SLaX8ruqfgfBPDcgRT3M-11" value="photo" style="text;strokeColor=none;fillColor=none;align=left;verticalAlign=middle;spacingLeft=4;spacingRight=4;overflow=hidden;points=[[0,0.5],[1,0.5]];portConstraint=eastwest;rotatable=0;whiteSpace=wrap;html=1;" vertex="1" parent="SLaX8ruqfgfBPDcgRT3M-9">
          <mxGeometry y="60" width="140" height="30" as="geometry" />
        </mxCell>
        <mxCell id="SLaX8ruqfgfBPDcgRT3M-12" value="name" style="text;strokeColor=none;fillColor=none;align=left;verticalAlign=middle;spacingLeft=4;spacingRight=4;overflow=hidden;points=[[0,0.5],[1,0.5]];portConstraint=eastwest;rotatable=0;whiteSpace=wrap;html=1;" vertex="1" parent="SLaX8ruqfgfBPDcgRT3M-9">
          <mxGeometry y="90" width="140" height="30" as="geometry" />
        </mxCell>
        <mxCell id="SLaX8ruqfgfBPDcgRT3M-20" value="description" style="text;strokeColor=none;fillColor=none;align=left;verticalAlign=middle;spacingLeft=4;spacingRight=4;overflow=hidden;points=[[0,0.5],[1,0.5]];portConstraint=eastwest;rotatable=0;whiteSpace=wrap;html=1;" vertex="1" parent="SLaX8ruqfgfBPDcgRT3M-9">
          <mxGeometry y="120" width="140" height="30" as="geometry" />
        </mxCell>
        <mxCell id="SLaX8ruqfgfBPDcgRT3M-21" value="country_id" style="text;strokeColor=none;fillColor=none;align=left;verticalAlign=middle;spacingLeft=4;spacingRight=4;overflow=hidden;points=[[0,0.5],[1,0.5]];portConstraint=eastwest;rotatable=0;whiteSpace=wrap;html=1;" vertex="1" parent="SLaX8ruqfgfBPDcgRT3M-9">
          <mxGeometry y="150" width="140" height="30" as="geometry" />
        </mxCell>
        <mxCell id="SLaX8ruqfgfBPDcgRT3M-22" value="coach_id" style="text;strokeColor=none;fillColor=none;align=left;verticalAlign=middle;spacingLeft=4;spacingRight=4;overflow=hidden;points=[[0,0.5],[1,0.5]];portConstraint=eastwest;rotatable=0;whiteSpace=wrap;html=1;" vertex="1" parent="SLaX8ruqfgfBPDcgRT3M-9">
          <mxGeometry y="180" width="140" height="30" as="geometry" />
        </mxCell>
        <mxCell id="SLaX8ruqfgfBPDcgRT3M-13" value="player" style="swimlane;fontStyle=0;childLayout=stackLayout;horizontal=1;startSize=30;horizontalStack=0;resizeParent=1;resizeParentMax=0;resizeLast=0;collapsible=1;marginBottom=0;whiteSpace=wrap;html=1;" vertex="1" parent="1">
          <mxGeometry x="290" y="440" width="140" height="270" as="geometry" />
        </mxCell>
        <mxCell id="SLaX8ruqfgfBPDcgRT3M-14" value="id" style="text;strokeColor=none;fillColor=none;align=left;verticalAlign=middle;spacingLeft=4;spacingRight=4;overflow=hidden;points=[[0,0.5],[1,0.5]];portConstraint=eastwest;rotatable=0;whiteSpace=wrap;html=1;" vertex="1" parent="SLaX8ruqfgfBPDcgRT3M-13">
          <mxGeometry y="30" width="140" height="30" as="geometry" />
        </mxCell>
        <mxCell id="SLaX8ruqfgfBPDcgRT3M-15" value="photo" style="text;strokeColor=none;fillColor=none;align=left;verticalAlign=middle;spacingLeft=4;spacingRight=4;overflow=hidden;points=[[0,0.5],[1,0.5]];portConstraint=eastwest;rotatable=0;whiteSpace=wrap;html=1;" vertex="1" parent="SLaX8ruqfgfBPDcgRT3M-13">
          <mxGeometry y="60" width="140" height="30" as="geometry" />
        </mxCell>
        <mxCell id="SLaX8ruqfgfBPDcgRT3M-16" value="surname" style="text;strokeColor=none;fillColor=none;align=left;verticalAlign=middle;spacingLeft=4;spacingRight=4;overflow=hidden;points=[[0,0.5],[1,0.5]];portConstraint=eastwest;rotatable=0;whiteSpace=wrap;html=1;" vertex="1" parent="SLaX8ruqfgfBPDcgRT3M-13">
          <mxGeometry y="90" width="140" height="30" as="geometry" />
        </mxCell>
        <mxCell id="SLaX8ruqfgfBPDcgRT3M-24" value="name" style="text;strokeColor=none;fillColor=none;align=left;verticalAlign=middle;spacingLeft=4;spacingRight=4;overflow=hidden;points=[[0,0.5],[1,0.5]];portConstraint=eastwest;rotatable=0;whiteSpace=wrap;html=1;" vertex="1" parent="SLaX8ruqfgfBPDcgRT3M-13">
          <mxGeometry y="120" width="140" height="30" as="geometry" />
        </mxCell>
        <mxCell id="SLaX8ruqfgfBPDcgRT3M-23" value="middle_name" style="text;strokeColor=none;fillColor=none;align=left;verticalAlign=middle;spacingLeft=4;spacingRight=4;overflow=hidden;points=[[0,0.5],[1,0.5]];portConstraint=eastwest;rotatable=0;whiteSpace=wrap;html=1;" vertex="1" parent="SLaX8ruqfgfBPDcgRT3M-13">
          <mxGeometry y="150" width="140" height="30" as="geometry" />
        </mxCell>
        <mxCell id="SLaX8ruqfgfBPDcgRT3M-25" value="&lt;div style=&quot;background-color: rgb(30, 31, 34); color: rgb(188, 190, 196);&quot;&gt;&lt;pre style=&quot;font-family: &amp;quot;JetBrains Mono&amp;quot;, monospace;&quot;&gt;&lt;span style=&quot;caret-color: rgb(0, 0, 0); color: rgb(0, 0, 0); font-family: Helvetica; white-space: normal; background-color: rgb(251, 251, 251);&quot;&gt;country_of_birth_id&lt;/span&gt;&lt;br&gt;&lt;/pre&gt;&lt;/div&gt;" style="text;strokeColor=none;fillColor=none;align=left;verticalAlign=middle;spacingLeft=4;spacingRight=4;overflow=hidden;points=[[0,0.5],[1,0.5]];portConstraint=eastwest;rotatable=0;whiteSpace=wrap;html=1;" vertex="1" parent="SLaX8ruqfgfBPDcgRT3M-13">
          <mxGeometry y="180" width="140" height="30" as="geometry" />
        </mxCell>
        <mxCell id="SLaX8ruqfgfBPDcgRT3M-26" value="&lt;div&gt;&lt;pre&gt;&lt;font face=&quot;Helvetica&quot;&gt;&lt;span style=&quot;white-space: normal; background-color: rgb(251, 251, 251);&quot;&gt;number&lt;/span&gt;&lt;/font&gt;&lt;/pre&gt;&lt;/div&gt;" style="text;strokeColor=none;fillColor=none;align=left;verticalAlign=middle;spacingLeft=4;spacingRight=4;overflow=hidden;points=[[0,0.5],[1,0.5]];portConstraint=eastwest;rotatable=0;whiteSpace=wrap;html=1;" vertex="1" parent="SLaX8ruqfgfBPDcgRT3M-13">
          <mxGeometry y="210" width="140" height="30" as="geometry" />
        </mxCell>
        <mxCell id="SLaX8ruqfgfBPDcgRT3M-27" value="&lt;div&gt;&lt;pre&gt;&lt;font face=&quot;Helvetica&quot;&gt;&lt;span style=&quot;white-space: normal; background-color: rgb(251, 251, 251);&quot;&gt;club_id&lt;/span&gt;&lt;/font&gt;&lt;/pre&gt;&lt;/div&gt;" style="text;strokeColor=none;fillColor=none;align=left;verticalAlign=middle;spacingLeft=4;spacingRight=4;overflow=hidden;points=[[0,0.5],[1,0.5]];portConstraint=eastwest;rotatable=0;whiteSpace=wrap;html=1;" vertex="1" parent="SLaX8ruqfgfBPDcgRT3M-13">
          <mxGeometry y="240" width="140" height="30" as="geometry" />
        </mxCell>
        <mxCell id="SLaX8ruqfgfBPDcgRT3M-29" style="edgeStyle=orthogonalEdgeStyle;rounded=0;orthogonalLoop=1;jettySize=auto;html=1;entryX=0;entryY=0.5;entryDx=0;entryDy=0;" edge="1" parent="1" source="SLaX8ruqfgfBPDcgRT3M-22" target="SLaX8ruqfgfBPDcgRT3M-6">
          <mxGeometry relative="1" as="geometry">
            <mxPoint x="270" y="160" as="targetPoint" />
          </mxGeometry>
        </mxCell>
        <mxCell id="SLaX8ruqfgfBPDcgRT3M-30" style="edgeStyle=orthogonalEdgeStyle;rounded=0;orthogonalLoop=1;jettySize=auto;html=1;entryX=0;entryY=0.5;entryDx=0;entryDy=0;" edge="1" parent="1" source="SLaX8ruqfgfBPDcgRT3M-19" target="SLaX8ruqfgfBPDcgRT3M-2">
          <mxGeometry relative="1" as="geometry" />
        </mxCell>
        <mxCell id="SLaX8ruqfgfBPDcgRT3M-31" style="edgeStyle=orthogonalEdgeStyle;rounded=0;orthogonalLoop=1;jettySize=auto;html=1;entryX=0;entryY=0.5;entryDx=0;entryDy=0;" edge="1" parent="1" source="SLaX8ruqfgfBPDcgRT3M-21" target="SLaX8ruqfgfBPDcgRT3M-2">
          <mxGeometry relative="1" as="geometry" />
        </mxCell>
        <mxCell id="SLaX8ruqfgfBPDcgRT3M-32" style="edgeStyle=orthogonalEdgeStyle;rounded=0;orthogonalLoop=1;jettySize=auto;html=1;entryX=0;entryY=0.5;entryDx=0;entryDy=0;" edge="1" parent="1" source="SLaX8ruqfgfBPDcgRT3M-25" target="SLaX8ruqfgfBPDcgRT3M-2">
          <mxGeometry relative="1" as="geometry" />
        </mxCell>
        <mxCell id="SLaX8ruqfgfBPDcgRT3M-33" style="edgeStyle=orthogonalEdgeStyle;rounded=0;orthogonalLoop=1;jettySize=auto;html=1;entryX=0;entryY=0.5;entryDx=0;entryDy=0;" edge="1" parent="1" source="SLaX8ruqfgfBPDcgRT3M-27" target="SLaX8ruqfgfBPDcgRT3M-10">
          <mxGeometry relative="1" as="geometry">
            <Array as="points">
              <mxPoint x="40" y="700" />
              <mxPoint x="40" y="405" />
            </Array>
          </mxGeometry>
        </mxCell>
      </root>
    </mxGraphModel>
  </diagram>
  <diagram name="datalogic" id="6KlOt9K7AzoH-hcaxoDu">
    <mxGraphModel dx="2190" dy="2093" grid="1" gridSize="10" guides="1" tooltips="1" connect="1" arrows="1" fold="1" page="1" pageScale="1" pageWidth="827" pageHeight="1169" math="0" shadow="0">
      <root>
        <mxCell id="0" />
        <mxCell id="1" parent="0" />
        <mxCell id="XTSCfcso8maByqGfd6Gx-33" value="" style="group;movable=0;resizable=0;rotatable=0;deletable=0;editable=0;locked=1;connectable=0;" parent="1" vertex="1" connectable="0">
          <mxGeometry x="-10" y="-40" width="260" height="200" as="geometry" />
        </mxCell>
        <mxCell id="XTSCfcso8maByqGfd6Gx-34" value="" style="group" parent="XTSCfcso8maByqGfd6Gx-33" vertex="1" connectable="0">
          <mxGeometry x="-30" y="-50" width="260" height="200" as="geometry" />
        </mxCell>
        <mxCell id="XTSCfcso8maByqGfd6Gx-35" value="" style="group" parent="XTSCfcso8maByqGfd6Gx-34" vertex="1" connectable="0">
          <mxGeometry width="260" height="200" as="geometry" />
        </mxCell>
        <mxCell id="XTSCfcso8maByqGfd6Gx-36" value="" style="group;movable=0;resizable=0;rotatable=0;deletable=0;editable=0;locked=1;connectable=0;" parent="XTSCfcso8maByqGfd6Gx-35" vertex="1" connectable="0">
          <mxGeometry width="260" height="200" as="geometry" />
        </mxCell>
        <mxCell id="eKwWdkmg1OkOoB-3domw-1" value="Первичный ключ" style="rounded=1;whiteSpace=wrap;html=1;fillColor=#d5e8d4;strokeColor=#82b366;" parent="1" vertex="1">
          <mxGeometry x="-550" y="-345" width="160" height="40" as="geometry" />
        </mxCell>
        <mxCell id="b0rXWpcAoikA4TN5r0-M-1" style="edgeStyle=orthogonalEdgeStyle;shape=connector;rounded=1;orthogonalLoop=1;jettySize=auto;html=1;entryX=1;entryY=0.5;entryDx=0;entryDy=0;labelBackgroundColor=default;strokeColor=default;align=center;verticalAlign=middle;fontFamily=Helvetica;fontSize=11;fontColor=default;endArrow=classic;endFill=1;" parent="1" source="eKwWdkmg1OkOoB-3domw-2" target="eKwWdkmg1OkOoB-3domw-1" edge="1">
          <mxGeometry relative="1" as="geometry">
            <Array as="points">
              <mxPoint x="-330" y="-285" />
              <mxPoint x="-330" y="-325" />
            </Array>
          </mxGeometry>
        </mxCell>
        <mxCell id="eKwWdkmg1OkOoB-3domw-2" value="Вторичный ключ" style="rounded=1;whiteSpace=wrap;html=1;fillColor=#fff2cc;strokeColor=#d6b656;" parent="1" vertex="1">
          <mxGeometry x="-550" y="-305" width="160" height="40" as="geometry" />
        </mxCell>
        <mxCell id="HQeLWs8wuf3AgurrJEJk-12" value="" style="group;movable=0;resizable=0;rotatable=0;deletable=0;editable=0;locked=1;connectable=0;" parent="1" vertex="1" connectable="0">
          <mxGeometry y="-30" width="260" height="200" as="geometry" />
        </mxCell>
        <mxCell id="HQeLWs8wuf3AgurrJEJk-13" value="" style="group" parent="HQeLWs8wuf3AgurrJEJk-12" vertex="1" connectable="0">
          <mxGeometry x="-30" y="-50" width="260" height="200" as="geometry" />
        </mxCell>
        <mxCell id="HQeLWs8wuf3AgurrJEJk-14" value="" style="group" parent="HQeLWs8wuf3AgurrJEJk-13" vertex="1" connectable="0">
          <mxGeometry width="260" height="200" as="geometry" />
        </mxCell>
        <mxCell id="HQeLWs8wuf3AgurrJEJk-15" value="" style="group;movable=0;resizable=0;rotatable=0;deletable=0;editable=0;locked=1;connectable=0;" parent="HQeLWs8wuf3AgurrJEJk-14" vertex="1" connectable="0">
          <mxGeometry width="260" height="200" as="geometry" />
        </mxCell>
        <mxCell id="TJujJbeL9f49xJOEqkv_-1" value="" style="group" parent="1" vertex="1" connectable="0">
          <mxGeometry x="-70" y="410" width="260" height="210" as="geometry" />
        </mxCell>
        <mxCell id="4m2AMOnflhfGbuUh0Fhk-2" value="" style="rounded=0;whiteSpace=wrap;html=1;" parent="TJujJbeL9f49xJOEqkv_-1" vertex="1">
          <mxGeometry width="260" height="210" as="geometry" />
        </mxCell>
        <mxCell id="4m2AMOnflhfGbuUh0Fhk-3" value="TYPE" style="rounded=0;whiteSpace=wrap;html=1;" parent="TJujJbeL9f49xJOEqkv_-1" vertex="1">
          <mxGeometry x="150" width="110" height="40" as="geometry" />
        </mxCell>
        <mxCell id="4m2AMOnflhfGbuUh0Fhk-4" value="тренер" style="rounded=0;whiteSpace=wrap;html=1;fillColor=#e1d5e7;strokeColor=#9673a6;" parent="TJujJbeL9f49xJOEqkv_-1" vertex="1">
          <mxGeometry width="110" height="40" as="geometry" />
        </mxCell>
        <mxCell id="4m2AMOnflhfGbuUh0Fhk-5" value="NULL" style="rounded=0;whiteSpace=wrap;html=1;" parent="TJujJbeL9f49xJOEqkv_-1" vertex="1">
          <mxGeometry x="110" width="40" height="40" as="geometry" />
        </mxCell>
        <mxCell id="4m2AMOnflhfGbuUh0Fhk-6" value="INTEGER" style="rounded=0;whiteSpace=wrap;html=1;" parent="TJujJbeL9f49xJOEqkv_-1" vertex="1">
          <mxGeometry x="150" y="40" width="110" height="40" as="geometry" />
        </mxCell>
        <mxCell id="4m2AMOnflhfGbuUh0Fhk-7" value="id тренера" style="rounded=0;whiteSpace=wrap;html=1;fillColor=#d5e8d4;strokeColor=default;" parent="TJujJbeL9f49xJOEqkv_-1" vertex="1">
          <mxGeometry y="40" width="110" height="40" as="geometry" />
        </mxCell>
        <mxCell id="4m2AMOnflhfGbuUh0Fhk-8" value="" style="rounded=0;whiteSpace=wrap;html=1;fillColor=#f8cecc;strokeColor=#b85450;" parent="TJujJbeL9f49xJOEqkv_-1" vertex="1">
          <mxGeometry x="110" y="40" width="40" height="40" as="geometry" />
        </mxCell>
        <mxCell id="4m2AMOnflhfGbuUh0Fhk-9" value="IINTEGER" style="rounded=0;whiteSpace=wrap;html=1;" parent="TJujJbeL9f49xJOEqkv_-1" vertex="1">
          <mxGeometry x="150" y="80" width="110" height="40" as="geometry" />
        </mxCell>
        <mxCell id="4m2AMOnflhfGbuUh0Fhk-10" value="id пользователя" style="rounded=0;whiteSpace=wrap;html=1;fillColor=#fff2cc;strokeColor=default;" parent="TJujJbeL9f49xJOEqkv_-1" vertex="1">
          <mxGeometry y="80" width="110" height="40" as="geometry" />
        </mxCell>
        <mxCell id="4m2AMOnflhfGbuUh0Fhk-11" value="" style="rounded=0;whiteSpace=wrap;html=1;fillColor=#f8cecc;strokeColor=#b85450;" parent="TJujJbeL9f49xJOEqkv_-1" vertex="1">
          <mxGeometry x="110" y="80" width="40" height="40" as="geometry" />
        </mxCell>
        <mxCell id="4m2AMOnflhfGbuUh0Fhk-12" value="DATETIME" style="rounded=0;whiteSpace=wrap;html=1;" parent="TJujJbeL9f49xJOEqkv_-1" vertex="1">
          <mxGeometry x="150" y="120" width="110" height="40" as="geometry" />
        </mxCell>
        <mxCell id="4m2AMOnflhfGbuUh0Fhk-13" value="дата трудоустройства" style="rounded=0;whiteSpace=wrap;html=1;" parent="TJujJbeL9f49xJOEqkv_-1" vertex="1">
          <mxGeometry y="120" width="110" height="40" as="geometry" />
        </mxCell>
        <mxCell id="4m2AMOnflhfGbuUh0Fhk-14" value="" style="rounded=0;whiteSpace=wrap;html=1;fillColor=#f8cecc;strokeColor=#b85450;" parent="TJujJbeL9f49xJOEqkv_-1" vertex="1">
          <mxGeometry x="110" y="120" width="40" height="40" as="geometry" />
        </mxCell>
        <mxCell id="4m2AMOnflhfGbuUh0Fhk-15" value="BOOL" style="rounded=0;whiteSpace=wrap;html=1;" parent="TJujJbeL9f49xJOEqkv_-1" vertex="1">
          <mxGeometry x="150" y="160" width="110" height="40" as="geometry" />
        </mxCell>
        <mxCell id="4m2AMOnflhfGbuUh0Fhk-16" value="статус&lt;br&gt;(работает/отпуск)" style="rounded=0;whiteSpace=wrap;html=1;" parent="TJujJbeL9f49xJOEqkv_-1" vertex="1">
          <mxGeometry y="160" width="110" height="40" as="geometry" />
        </mxCell>
        <mxCell id="4m2AMOnflhfGbuUh0Fhk-26" value="" style="rounded=0;whiteSpace=wrap;html=1;fillColor=#f8cecc;strokeColor=#b85450;" parent="TJujJbeL9f49xJOEqkv_-1" vertex="1">
          <mxGeometry x="110" y="160" width="40" height="40" as="geometry" />
        </mxCell>
        <mxCell id="d8u-aq4u83oZqmB3IIfj-1" value="" style="group;strokeColor=default;" parent="1" vertex="1" connectable="0">
          <mxGeometry x="284" y="510" width="260" height="535" as="geometry" />
        </mxCell>
        <mxCell id="HQeLWs8wuf3AgurrJEJk-17" value="" style="rounded=0;whiteSpace=wrap;html=1;" parent="d8u-aq4u83oZqmB3IIfj-1" vertex="1">
          <mxGeometry width="260" height="535" as="geometry" />
        </mxCell>
        <mxCell id="HQeLWs8wuf3AgurrJEJk-18" value="TYPE" style="rounded=0;whiteSpace=wrap;html=1;" parent="d8u-aq4u83oZqmB3IIfj-1" vertex="1">
          <mxGeometry x="150" width="110" height="40" as="geometry" />
        </mxCell>
        <mxCell id="HQeLWs8wuf3AgurrJEJk-19" value="абонемент" style="rounded=0;whiteSpace=wrap;html=1;fillColor=#e1d5e7;strokeColor=#9673a6;" parent="d8u-aq4u83oZqmB3IIfj-1" vertex="1">
          <mxGeometry width="110" height="40" as="geometry" />
        </mxCell>
        <mxCell id="HQeLWs8wuf3AgurrJEJk-20" value="NULL" style="rounded=0;whiteSpace=wrap;html=1;" parent="d8u-aq4u83oZqmB3IIfj-1" vertex="1">
          <mxGeometry x="110" width="40" height="40" as="geometry" />
        </mxCell>
        <mxCell id="HQeLWs8wuf3AgurrJEJk-21" value="INTEGER" style="rounded=0;whiteSpace=wrap;html=1;" parent="d8u-aq4u83oZqmB3IIfj-1" vertex="1">
          <mxGeometry x="150" y="40" width="110" height="40" as="geometry" />
        </mxCell>
        <mxCell id="HQeLWs8wuf3AgurrJEJk-22" value="id абонемента" style="rounded=0;whiteSpace=wrap;html=1;fillColor=#d5e8d4;strokeColor=default;" parent="d8u-aq4u83oZqmB3IIfj-1" vertex="1">
          <mxGeometry y="40" width="110" height="40" as="geometry" />
        </mxCell>
        <mxCell id="HQeLWs8wuf3AgurrJEJk-23" value="" style="rounded=0;whiteSpace=wrap;html=1;fillColor=#f8cecc;strokeColor=#b85450;" parent="d8u-aq4u83oZqmB3IIfj-1" vertex="1">
          <mxGeometry x="110" y="40" width="40" height="40" as="geometry" />
        </mxCell>
        <mxCell id="HQeLWs8wuf3AgurrJEJk-24" value="IINTEGER" style="rounded=0;whiteSpace=wrap;html=1;" parent="d8u-aq4u83oZqmB3IIfj-1" vertex="1">
          <mxGeometry x="150" y="80" width="110" height="40" as="geometry" />
        </mxCell>
        <mxCell id="HQeLWs8wuf3AgurrJEJk-25" value="Цена" style="rounded=0;whiteSpace=wrap;html=1;" parent="d8u-aq4u83oZqmB3IIfj-1" vertex="1">
          <mxGeometry y="80" width="110" height="40" as="geometry" />
        </mxCell>
        <mxCell id="HQeLWs8wuf3AgurrJEJk-26" value="" style="rounded=0;whiteSpace=wrap;html=1;fillColor=#f8cecc;strokeColor=#b85450;" parent="d8u-aq4u83oZqmB3IIfj-1" vertex="1">
          <mxGeometry x="110" y="80" width="40" height="40" as="geometry" />
        </mxCell>
        <mxCell id="HQeLWs8wuf3AgurrJEJk-27" value="DATETIME" style="rounded=0;whiteSpace=wrap;html=1;" parent="d8u-aq4u83oZqmB3IIfj-1" vertex="1">
          <mxGeometry x="150" y="120" width="110" height="40" as="geometry" />
        </mxCell>
        <mxCell id="HQeLWs8wuf3AgurrJEJk-28" value="дата Создания" style="rounded=0;whiteSpace=wrap;html=1;" parent="d8u-aq4u83oZqmB3IIfj-1" vertex="1">
          <mxGeometry y="120" width="110" height="40" as="geometry" />
        </mxCell>
        <mxCell id="HQeLWs8wuf3AgurrJEJk-29" value="" style="rounded=0;whiteSpace=wrap;html=1;fillColor=#f8cecc;strokeColor=#b85450;" parent="d8u-aq4u83oZqmB3IIfj-1" vertex="1">
          <mxGeometry x="110" y="120" width="40" height="40" as="geometry" />
        </mxCell>
        <mxCell id="HQeLWs8wuf3AgurrJEJk-30" value="DATETIME" style="rounded=0;whiteSpace=wrap;html=1;" parent="d8u-aq4u83oZqmB3IIfj-1" vertex="1">
          <mxGeometry x="150" y="160" width="110" height="40" as="geometry" />
        </mxCell>
        <mxCell id="HQeLWs8wuf3AgurrJEJk-31" value="дата окончания" style="rounded=0;whiteSpace=wrap;html=1;" parent="d8u-aq4u83oZqmB3IIfj-1" vertex="1">
          <mxGeometry y="160" width="110" height="40" as="geometry" />
        </mxCell>
        <mxCell id="HQeLWs8wuf3AgurrJEJk-32" value="" style="rounded=0;whiteSpace=wrap;html=1;" parent="d8u-aq4u83oZqmB3IIfj-1" vertex="1">
          <mxGeometry x="110" y="200" width="40" height="40" as="geometry" />
        </mxCell>
        <mxCell id="HQeLWs8wuf3AgurrJEJk-33" value="BOOL" style="rounded=0;whiteSpace=wrap;html=1;" parent="d8u-aq4u83oZqmB3IIfj-1" vertex="1">
          <mxGeometry x="150" y="200" width="110" height="40" as="geometry" />
        </mxCell>
        <mxCell id="HQeLWs8wuf3AgurrJEJk-34" value="статус абонемента" style="rounded=0;whiteSpace=wrap;html=1;" parent="d8u-aq4u83oZqmB3IIfj-1" vertex="1">
          <mxGeometry y="240" width="110" height="40" as="geometry" />
        </mxCell>
        <mxCell id="HQeLWs8wuf3AgurrJEJk-35" value="" style="rounded=0;whiteSpace=wrap;html=1;fillColor=#f8cecc;strokeColor=#b85450;" parent="d8u-aq4u83oZqmB3IIfj-1" vertex="1">
          <mxGeometry x="110" y="200" width="40" height="40" as="geometry" />
        </mxCell>
        <mxCell id="HQeLWs8wuf3AgurrJEJk-36" value="BOOL" style="rounded=0;whiteSpace=wrap;html=1;" parent="d8u-aq4u83oZqmB3IIfj-1" vertex="1">
          <mxGeometry x="150" y="240" width="110" height="40" as="geometry" />
        </mxCell>
        <mxCell id="HQeLWs8wuf3AgurrJEJk-37" value="дней заморозки" style="rounded=0;whiteSpace=wrap;html=1;" parent="d8u-aq4u83oZqmB3IIfj-1" vertex="1">
          <mxGeometry y="280" width="110" height="40" as="geometry" />
        </mxCell>
        <mxCell id="HQeLWs8wuf3AgurrJEJk-38" value="" style="rounded=0;whiteSpace=wrap;html=1;fillColor=#f8cecc;strokeColor=#b85450;" parent="d8u-aq4u83oZqmB3IIfj-1" vertex="1">
          <mxGeometry x="110" y="240" width="40" height="40" as="geometry" />
        </mxCell>
        <mxCell id="HQeLWs8wuf3AgurrJEJk-39" value="INT" style="rounded=0;whiteSpace=wrap;html=1;" parent="d8u-aq4u83oZqmB3IIfj-1" vertex="1">
          <mxGeometry x="150" y="280" width="110" height="40" as="geometry" />
        </mxCell>
        <mxCell id="HQeLWs8wuf3AgurrJEJk-40" value="" style="rounded=0;whiteSpace=wrap;html=1;fillColor=#d5e8d4;strokeColor=#82b366;" parent="d8u-aq4u83oZqmB3IIfj-1" vertex="1">
          <mxGeometry x="110" y="280" width="40" height="40" as="geometry" />
        </mxCell>
        <mxCell id="HQeLWs8wuf3AgurrJEJk-41" value="" style="rounded=0;whiteSpace=wrap;html=1;fillColor=#f8cecc;strokeColor=#b85450;" parent="d8u-aq4u83oZqmB3IIfj-1" vertex="1">
          <mxGeometry x="110" y="160" width="40" height="40" as="geometry" />
        </mxCell>
        <mxCell id="HQeLWs8wuf3AgurrJEJk-48" value="статус оплаты" style="rounded=0;whiteSpace=wrap;html=1;strokeColor=default;" parent="d8u-aq4u83oZqmB3IIfj-1" vertex="1">
          <mxGeometry y="200" width="110" height="40" as="geometry" />
        </mxCell>
        <mxCell id="P2IMU7utsKrlOrNiFUa2-13" value="Безлимитное&lt;br&gt;посещение" style="rounded=0;whiteSpace=wrap;html=1;" parent="d8u-aq4u83oZqmB3IIfj-1" vertex="1">
          <mxGeometry y="320" width="110" height="40" as="geometry" />
        </mxCell>
        <mxCell id="P2IMU7utsKrlOrNiFUa2-14" value="" style="rounded=0;whiteSpace=wrap;html=1;fillColor=#f8cecc;strokeColor=#b85450;" parent="d8u-aq4u83oZqmB3IIfj-1" vertex="1">
          <mxGeometry x="110" y="320" width="40" height="40" as="geometry" />
        </mxCell>
        <mxCell id="P2IMU7utsKrlOrNiFUa2-12" value="BOOL" style="rounded=0;whiteSpace=wrap;html=1;" parent="d8u-aq4u83oZqmB3IIfj-1" vertex="1">
          <mxGeometry x="150" y="320" width="110" height="40" as="geometry" />
        </mxCell>
        <mxCell id="P2IMU7utsKrlOrNiFUa2-15" value="BOOL" style="rounded=0;whiteSpace=wrap;html=1;" parent="d8u-aq4u83oZqmB3IIfj-1" vertex="1">
          <mxGeometry x="150" y="360" width="110" height="40" as="geometry" />
        </mxCell>
        <mxCell id="P2IMU7utsKrlOrNiFUa2-21" value="INTEGER" style="rounded=0;whiteSpace=wrap;html=1;" parent="d8u-aq4u83oZqmB3IIfj-1" vertex="1">
          <mxGeometry x="150" y="440" width="110" height="40" as="geometry" />
        </mxCell>
        <mxCell id="P2IMU7utsKrlOrNiFUa2-18" value="BOOL" style="rounded=0;whiteSpace=wrap;html=1;" parent="d8u-aq4u83oZqmB3IIfj-1" vertex="1">
          <mxGeometry x="150" y="400" width="110" height="40" as="geometry" />
        </mxCell>
        <mxCell id="P2IMU7utsKrlOrNiFUa2-24" value="varchar(50)" style="rounded=0;whiteSpace=wrap;html=1;" parent="d8u-aq4u83oZqmB3IIfj-1" vertex="1">
          <mxGeometry x="150" y="480" width="110" height="40" as="geometry" />
        </mxCell>
        <mxCell id="P2IMU7utsKrlOrNiFUa2-25" value="" style="rounded=0;whiteSpace=wrap;html=1;fillColor=#f8cecc;strokeColor=#b85450;" parent="d8u-aq4u83oZqmB3IIfj-1" vertex="1">
          <mxGeometry x="110" y="480" width="40" height="40" as="geometry" />
        </mxCell>
        <mxCell id="P2IMU7utsKrlOrNiFUa2-23" value="" style="rounded=0;whiteSpace=wrap;html=1;fillColor=#f8cecc;strokeColor=#b85450;" parent="d8u-aq4u83oZqmB3IIfj-1" vertex="1">
          <mxGeometry x="110" y="440" width="40" height="40" as="geometry" />
        </mxCell>
        <mxCell id="P2IMU7utsKrlOrNiFUa2-20" value="" style="rounded=0;whiteSpace=wrap;html=1;fillColor=#f8cecc;strokeColor=#b85450;" parent="d8u-aq4u83oZqmB3IIfj-1" vertex="1">
          <mxGeometry x="110" y="400" width="40" height="40" as="geometry" />
        </mxCell>
        <mxCell id="P2IMU7utsKrlOrNiFUa2-26" value="" style="rounded=0;whiteSpace=wrap;html=1;fillColor=#f8cecc;strokeColor=#b85450;" parent="d8u-aq4u83oZqmB3IIfj-1" vertex="1">
          <mxGeometry x="110" y="360" width="40" height="40" as="geometry" />
        </mxCell>
        <mxCell id="P2IMU7utsKrlOrNiFUa2-16" value="Посещение&amp;nbsp;&lt;br&gt;до 10 раз" style="rounded=0;whiteSpace=wrap;html=1;" parent="d8u-aq4u83oZqmB3IIfj-1" vertex="1">
          <mxGeometry y="360" width="110" height="40" as="geometry" />
        </mxCell>
        <mxCell id="P2IMU7utsKrlOrNiFUa2-27" value="посещение&amp;nbsp;&lt;br&gt;событий" style="rounded=0;whiteSpace=wrap;html=1;strokeColor=default;" parent="d8u-aq4u83oZqmB3IIfj-1" vertex="1">
          <mxGeometry y="400" width="110" height="40" as="geometry" />
        </mxCell>
        <mxCell id="P2IMU7utsKrlOrNiFUa2-19" value="id зала" style="rounded=0;whiteSpace=wrap;html=1;fillColor=#fff2cc;strokeColor=default;" parent="d8u-aq4u83oZqmB3IIfj-1" vertex="1">
          <mxGeometry y="440" width="110" height="40" as="geometry" />
        </mxCell>
        <mxCell id="P2IMU7utsKrlOrNiFUa2-22" value="title" style="rounded=0;whiteSpace=wrap;html=1;" parent="d8u-aq4u83oZqmB3IIfj-1" vertex="1">
          <mxGeometry y="480" width="110" height="40" as="geometry" />
        </mxCell>
        <mxCell id="FpHMrvSkufUhsRvGOamV-1" value="" style="group" parent="1" vertex="1" connectable="0">
          <mxGeometry x="-70" y="680" width="260" height="290" as="geometry" />
        </mxCell>
        <mxCell id="2MEfKe1f7FnrXijyjFQL-9" value="" style="rounded=0;whiteSpace=wrap;html=1;" parent="FpHMrvSkufUhsRvGOamV-1" vertex="1">
          <mxGeometry width="260" height="290" as="geometry" />
        </mxCell>
        <mxCell id="2MEfKe1f7FnrXijyjFQL-10" value="TYPE" style="rounded=0;whiteSpace=wrap;html=1;" parent="FpHMrvSkufUhsRvGOamV-1" vertex="1">
          <mxGeometry x="150" width="110" height="40" as="geometry" />
        </mxCell>
        <mxCell id="2MEfKe1f7FnrXijyjFQL-11" value="тренировочный зал" style="rounded=0;whiteSpace=wrap;html=1;fillColor=#e1d5e7;strokeColor=#9673a6;" parent="FpHMrvSkufUhsRvGOamV-1" vertex="1">
          <mxGeometry width="110" height="40" as="geometry" />
        </mxCell>
        <mxCell id="2MEfKe1f7FnrXijyjFQL-12" value="NULL" style="rounded=0;whiteSpace=wrap;html=1;" parent="FpHMrvSkufUhsRvGOamV-1" vertex="1">
          <mxGeometry x="110" width="40" height="40" as="geometry" />
        </mxCell>
        <mxCell id="2MEfKe1f7FnrXijyjFQL-13" value="INTEGER" style="rounded=0;whiteSpace=wrap;html=1;" parent="FpHMrvSkufUhsRvGOamV-1" vertex="1">
          <mxGeometry x="150" y="40" width="110" height="40" as="geometry" />
        </mxCell>
        <mxCell id="2MEfKe1f7FnrXijyjFQL-14" value="id зала" style="rounded=0;whiteSpace=wrap;html=1;fillColor=#d5e8d4;strokeColor=default;" parent="FpHMrvSkufUhsRvGOamV-1" vertex="1">
          <mxGeometry y="40" width="110" height="40" as="geometry" />
        </mxCell>
        <mxCell id="2MEfKe1f7FnrXijyjFQL-15" value="" style="rounded=0;whiteSpace=wrap;html=1;fillColor=#f8cecc;strokeColor=#b85450;" parent="FpHMrvSkufUhsRvGOamV-1" vertex="1">
          <mxGeometry x="110" y="40" width="40" height="40" as="geometry" />
        </mxCell>
        <mxCell id="2MEfKe1f7FnrXijyjFQL-16" value="VARCHAR(30)" style="rounded=0;whiteSpace=wrap;html=1;" parent="FpHMrvSkufUhsRvGOamV-1" vertex="1">
          <mxGeometry x="150" y="80" width="110" height="40" as="geometry" />
        </mxCell>
        <mxCell id="2MEfKe1f7FnrXijyjFQL-17" value="адрес" style="rounded=0;whiteSpace=wrap;html=1;" parent="FpHMrvSkufUhsRvGOamV-1" vertex="1">
          <mxGeometry y="80" width="110" height="40" as="geometry" />
        </mxCell>
        <mxCell id="2MEfKe1f7FnrXijyjFQL-18" value="" style="rounded=0;whiteSpace=wrap;html=1;fillColor=#f8cecc;strokeColor=#b85450;" parent="FpHMrvSkufUhsRvGOamV-1" vertex="1">
          <mxGeometry x="110" y="80" width="40" height="40" as="geometry" />
        </mxCell>
        <mxCell id="2MEfKe1f7FnrXijyjFQL-19" value="DATETIME" style="rounded=0;whiteSpace=wrap;html=1;" parent="FpHMrvSkufUhsRvGOamV-1" vertex="1">
          <mxGeometry x="150" y="120" width="110" height="40" as="geometry" />
        </mxCell>
        <mxCell id="2MEfKe1f7FnrXijyjFQL-20" value="дата открытия" style="rounded=0;whiteSpace=wrap;html=1;" parent="FpHMrvSkufUhsRvGOamV-1" vertex="1">
          <mxGeometry y="120" width="110" height="40" as="geometry" />
        </mxCell>
        <mxCell id="2MEfKe1f7FnrXijyjFQL-21" value="" style="rounded=0;whiteSpace=wrap;html=1;fillColor=#f8cecc;strokeColor=#b85450;" parent="FpHMrvSkufUhsRvGOamV-1" vertex="1">
          <mxGeometry x="110" y="120" width="40" height="40" as="geometry" />
        </mxCell>
        <mxCell id="2MEfKe1f7FnrXijyjFQL-22" value="BOOL" style="rounded=0;whiteSpace=wrap;html=1;" parent="FpHMrvSkufUhsRvGOamV-1" vertex="1">
          <mxGeometry x="150" y="160" width="110" height="40" as="geometry" />
        </mxCell>
        <mxCell id="2MEfKe1f7FnrXijyjFQL-23" value="статус работы" style="rounded=0;whiteSpace=wrap;html=1;" parent="FpHMrvSkufUhsRvGOamV-1" vertex="1">
          <mxGeometry y="160" width="110" height="40" as="geometry" />
        </mxCell>
        <mxCell id="2MEfKe1f7FnrXijyjFQL-24" value="" style="rounded=0;whiteSpace=wrap;html=1;fillColor=#f8cecc;strokeColor=#b85450;" parent="FpHMrvSkufUhsRvGOamV-1" vertex="1">
          <mxGeometry x="110" y="160" width="40" height="40" as="geometry" />
        </mxCell>
        <mxCell id="re3IAdauqMYgFeXUZ75M-4" value="INTEGER" style="rounded=0;whiteSpace=wrap;html=1;" parent="FpHMrvSkufUhsRvGOamV-1" vertex="1">
          <mxGeometry x="150" y="200" width="110" height="40" as="geometry" />
        </mxCell>
        <mxCell id="re3IAdauqMYgFeXUZ75M-6" value="" style="rounded=0;whiteSpace=wrap;html=1;fillColor=#f8cecc;strokeColor=#b85450;" parent="FpHMrvSkufUhsRvGOamV-1" vertex="1">
          <mxGeometry x="110" y="200" width="40" height="40" as="geometry" />
        </mxCell>
        <mxCell id="re3IAdauqMYgFeXUZ75M-7" value="INTEGER" style="rounded=0;whiteSpace=wrap;html=1;" parent="FpHMrvSkufUhsRvGOamV-1" vertex="1">
          <mxGeometry x="150" y="240" width="110" height="40" as="geometry" />
        </mxCell>
        <mxCell id="re3IAdauqMYgFeXUZ75M-8" value="&lt;span style=&quot;caret-color: rgb(0, 0, 0); color: rgb(0, 0, 0); font-family: Helvetica; font-size: 12px; font-style: normal; font-variant-caps: normal; font-weight: 400; letter-spacing: normal; text-align: center; text-indent: 0px; text-transform: none; word-spacing: 0px; -webkit-text-stroke-width: 0px; background-color: rgb(251, 251, 251); text-decoration: none; float: none; display: inline !important;&quot;&gt;кол-во посетителей в момент вемени&lt;/span&gt;" style="rounded=0;whiteSpace=wrap;html=1;strokeColor=default;" parent="FpHMrvSkufUhsRvGOamV-1" vertex="1">
          <mxGeometry y="240" width="110" height="40" as="geometry" />
        </mxCell>
        <mxCell id="re3IAdauqMYgFeXUZ75M-9" value="" style="rounded=0;whiteSpace=wrap;html=1;fillColor=#f8cecc;strokeColor=#b85450;" parent="FpHMrvSkufUhsRvGOamV-1" vertex="1">
          <mxGeometry x="110" y="240" width="40" height="40" as="geometry" />
        </mxCell>
        <mxCell id="re3IAdauqMYgFeXUZ75M-5" value="макс. вместимость" style="rounded=0;whiteSpace=wrap;html=1;" parent="FpHMrvSkufUhsRvGOamV-1" vertex="1">
          <mxGeometry y="200" width="110" height="40" as="geometry" />
        </mxCell>
        <mxCell id="CM6EW3pc83eYQOa1h4Vv-24" value="" style="group" parent="1" vertex="1" connectable="0">
          <mxGeometry x="-710" y="810" width="260" height="130" as="geometry" />
        </mxCell>
        <mxCell id="CM6EW3pc83eYQOa1h4Vv-8" value="" style="rounded=0;whiteSpace=wrap;html=1;container=0;" parent="CM6EW3pc83eYQOa1h4Vv-24" vertex="1">
          <mxGeometry width="260" height="130" as="geometry" />
        </mxCell>
        <mxCell id="CM6EW3pc83eYQOa1h4Vv-9" value="TYPE" style="rounded=0;whiteSpace=wrap;html=1;container=0;" parent="CM6EW3pc83eYQOa1h4Vv-24" vertex="1">
          <mxGeometry x="150" width="110" height="40" as="geometry" />
        </mxCell>
        <mxCell id="CM6EW3pc83eYQOa1h4Vv-10" value="категория товара" style="rounded=0;whiteSpace=wrap;html=1;container=0;fillColor=#e1d5e7;strokeColor=#9673a6;" parent="CM6EW3pc83eYQOa1h4Vv-24" vertex="1">
          <mxGeometry width="110" height="40" as="geometry" />
        </mxCell>
        <mxCell id="CM6EW3pc83eYQOa1h4Vv-11" value="NULL" style="rounded=0;whiteSpace=wrap;html=1;container=0;" parent="CM6EW3pc83eYQOa1h4Vv-24" vertex="1">
          <mxGeometry x="110" width="40" height="40" as="geometry" />
        </mxCell>
        <mxCell id="CM6EW3pc83eYQOa1h4Vv-12" value="INTEGER" style="rounded=0;whiteSpace=wrap;html=1;container=0;" parent="CM6EW3pc83eYQOa1h4Vv-24" vertex="1">
          <mxGeometry x="150" y="40" width="110" height="40" as="geometry" />
        </mxCell>
        <mxCell id="CM6EW3pc83eYQOa1h4Vv-13" value="id категории" style="rounded=0;whiteSpace=wrap;html=1;fillColor=#d5e8d4;strokeColor=default;container=0;" parent="CM6EW3pc83eYQOa1h4Vv-24" vertex="1">
          <mxGeometry y="40" width="110" height="40" as="geometry" />
        </mxCell>
        <mxCell id="CM6EW3pc83eYQOa1h4Vv-14" value="" style="rounded=0;whiteSpace=wrap;html=1;fillColor=#f8cecc;strokeColor=#b85450;container=0;" parent="CM6EW3pc83eYQOa1h4Vv-24" vertex="1">
          <mxGeometry x="110" y="40" width="40" height="40" as="geometry" />
        </mxCell>
        <mxCell id="CM6EW3pc83eYQOa1h4Vv-15" value="INTEGER" style="rounded=0;whiteSpace=wrap;html=1;container=0;" parent="CM6EW3pc83eYQOa1h4Vv-24" vertex="1">
          <mxGeometry x="150" y="80" width="110" height="40" as="geometry" />
        </mxCell>
        <mxCell id="CM6EW3pc83eYQOa1h4Vv-16" value="категория" style="rounded=0;whiteSpace=wrap;html=1;container=0;" parent="CM6EW3pc83eYQOa1h4Vv-24" vertex="1">
          <mxGeometry y="80" width="110" height="40" as="geometry" />
        </mxCell>
        <mxCell id="CM6EW3pc83eYQOa1h4Vv-17" value="" style="rounded=0;whiteSpace=wrap;html=1;fillColor=#f8cecc;strokeColor=#b85450;container=0;" parent="CM6EW3pc83eYQOa1h4Vv-24" vertex="1">
          <mxGeometry x="110" y="80" width="40" height="40" as="geometry" />
        </mxCell>
        <mxCell id="CM6EW3pc83eYQOa1h4Vv-25" value="" style="group" parent="1" vertex="1" connectable="0">
          <mxGeometry x="-390" y="730" width="260" height="250" as="geometry" />
        </mxCell>
        <mxCell id="SY3xnQZ9ESmQ8LTkHdD1-2" value="" style="rounded=0;whiteSpace=wrap;html=1;container=0;" parent="CM6EW3pc83eYQOa1h4Vv-25" vertex="1">
          <mxGeometry width="260" height="250" as="geometry" />
        </mxCell>
        <mxCell id="SY3xnQZ9ESmQ8LTkHdD1-3" value="TYPE" style="rounded=0;whiteSpace=wrap;html=1;container=0;" parent="CM6EW3pc83eYQOa1h4Vv-25" vertex="1">
          <mxGeometry x="150" width="110" height="40" as="geometry" />
        </mxCell>
        <mxCell id="SY3xnQZ9ESmQ8LTkHdD1-4" value="товар" style="rounded=0;whiteSpace=wrap;html=1;container=0;" parent="CM6EW3pc83eYQOa1h4Vv-25" vertex="1">
          <mxGeometry width="110" height="40" as="geometry" />
        </mxCell>
        <mxCell id="SY3xnQZ9ESmQ8LTkHdD1-5" value="NULL" style="rounded=0;whiteSpace=wrap;html=1;container=0;" parent="CM6EW3pc83eYQOa1h4Vv-25" vertex="1">
          <mxGeometry x="110" width="40" height="40" as="geometry" />
        </mxCell>
        <mxCell id="SY3xnQZ9ESmQ8LTkHdD1-6" value="INTEGER" style="rounded=0;whiteSpace=wrap;html=1;container=0;" parent="CM6EW3pc83eYQOa1h4Vv-25" vertex="1">
          <mxGeometry x="150" y="40" width="110" height="40" as="geometry" />
        </mxCell>
        <mxCell id="SY3xnQZ9ESmQ8LTkHdD1-7" value="id тоара" style="rounded=0;whiteSpace=wrap;html=1;fillColor=#d5e8d4;strokeColor=default;container=0;" parent="CM6EW3pc83eYQOa1h4Vv-25" vertex="1">
          <mxGeometry y="40" width="110" height="40" as="geometry" />
        </mxCell>
        <mxCell id="SY3xnQZ9ESmQ8LTkHdD1-8" value="" style="rounded=0;whiteSpace=wrap;html=1;fillColor=#f8cecc;strokeColor=#b85450;container=0;" parent="CM6EW3pc83eYQOa1h4Vv-25" vertex="1">
          <mxGeometry x="110" y="40" width="40" height="40" as="geometry" />
        </mxCell>
        <mxCell id="SY3xnQZ9ESmQ8LTkHdD1-9" value="INTEGER" style="rounded=0;whiteSpace=wrap;html=1;container=0;" parent="CM6EW3pc83eYQOa1h4Vv-25" vertex="1">
          <mxGeometry x="150" y="80" width="110" height="40" as="geometry" />
        </mxCell>
        <mxCell id="SY3xnQZ9ESmQ8LTkHdD1-10" value="цена" style="rounded=0;whiteSpace=wrap;html=1;container=0;" parent="CM6EW3pc83eYQOa1h4Vv-25" vertex="1">
          <mxGeometry y="80" width="110" height="40" as="geometry" />
        </mxCell>
        <mxCell id="SY3xnQZ9ESmQ8LTkHdD1-11" value="" style="rounded=0;whiteSpace=wrap;html=1;fillColor=#f8cecc;strokeColor=#b85450;container=0;" parent="CM6EW3pc83eYQOa1h4Vv-25" vertex="1">
          <mxGeometry x="110" y="80" width="40" height="40" as="geometry" />
        </mxCell>
        <mxCell id="SY3xnQZ9ESmQ8LTkHdD1-12" value="INTEGER" style="rounded=0;whiteSpace=wrap;html=1;container=0;" parent="CM6EW3pc83eYQOa1h4Vv-25" vertex="1">
          <mxGeometry x="150" y="120" width="110" height="40" as="geometry" />
        </mxCell>
        <mxCell id="SY3xnQZ9ESmQ8LTkHdD1-13" value="поставщик" style="rounded=0;whiteSpace=wrap;html=1;container=0;" parent="CM6EW3pc83eYQOa1h4Vv-25" vertex="1">
          <mxGeometry y="120" width="110" height="40" as="geometry" />
        </mxCell>
        <mxCell id="SY3xnQZ9ESmQ8LTkHdD1-14" value="" style="rounded=0;whiteSpace=wrap;html=1;fillColor=#d5e8d4;strokeColor=#82b366;container=0;" parent="CM6EW3pc83eYQOa1h4Vv-25" vertex="1">
          <mxGeometry x="110" y="120" width="40" height="40" as="geometry" />
        </mxCell>
        <mxCell id="CM6EW3pc83eYQOa1h4Vv-1" value="INTEGER" style="rounded=0;whiteSpace=wrap;html=1;container=0;" parent="CM6EW3pc83eYQOa1h4Vv-25" vertex="1">
          <mxGeometry x="150" y="160" width="110" height="40" as="geometry" />
        </mxCell>
        <mxCell id="CM6EW3pc83eYQOa1h4Vv-2" value="годен до" style="rounded=0;whiteSpace=wrap;html=1;container=0;" parent="CM6EW3pc83eYQOa1h4Vv-25" vertex="1">
          <mxGeometry y="160" width="110" height="40" as="geometry" />
        </mxCell>
        <mxCell id="CM6EW3pc83eYQOa1h4Vv-3" value="" style="rounded=0;whiteSpace=wrap;html=1;fillColor=#d5e8d4;strokeColor=#82b366;container=0;" parent="CM6EW3pc83eYQOa1h4Vv-25" vertex="1">
          <mxGeometry x="110" y="160" width="40" height="40" as="geometry" />
        </mxCell>
        <mxCell id="CM6EW3pc83eYQOa1h4Vv-4" value="INTEGER" style="rounded=0;whiteSpace=wrap;html=1;container=0;" parent="CM6EW3pc83eYQOa1h4Vv-25" vertex="1">
          <mxGeometry x="150" y="200" width="110" height="40" as="geometry" />
        </mxCell>
        <mxCell id="CM6EW3pc83eYQOa1h4Vv-5" value="категория товара" style="rounded=0;whiteSpace=wrap;html=1;container=0;fillColor=#fff2cc;strokeColor=default;" parent="CM6EW3pc83eYQOa1h4Vv-25" vertex="1">
          <mxGeometry y="200" width="110" height="40" as="geometry" />
        </mxCell>
        <mxCell id="CM6EW3pc83eYQOa1h4Vv-6" value="" style="rounded=0;whiteSpace=wrap;html=1;fillColor=#f8cecc;strokeColor=#b85450;container=0;" parent="CM6EW3pc83eYQOa1h4Vv-25" vertex="1">
          <mxGeometry x="110" y="200" width="40" height="40" as="geometry" />
        </mxCell>
        <mxCell id="CM6EW3pc83eYQOa1h4Vv-26" value="" style="group" parent="1" vertex="1" connectable="0">
          <mxGeometry x="-390" y="340" width="260" height="210" as="geometry" />
        </mxCell>
        <mxCell id="ZU3eSQO7JTyoVeqUJnHn-2" value="" style="rounded=0;whiteSpace=wrap;html=1;container=0;" parent="CM6EW3pc83eYQOa1h4Vv-26" vertex="1">
          <mxGeometry width="260" height="210" as="geometry" />
        </mxCell>
        <mxCell id="ZU3eSQO7JTyoVeqUJnHn-3" value="TYPE" style="rounded=0;whiteSpace=wrap;html=1;container=0;" parent="CM6EW3pc83eYQOa1h4Vv-26" vertex="1">
          <mxGeometry x="150" width="110" height="40" as="geometry" />
        </mxCell>
        <mxCell id="ZU3eSQO7JTyoVeqUJnHn-4" value="продуктовый&lt;br&gt;автомат" style="rounded=0;whiteSpace=wrap;html=1;container=0;fillColor=#e1d5e7;strokeColor=#9673a6;" parent="CM6EW3pc83eYQOa1h4Vv-26" vertex="1">
          <mxGeometry width="110" height="40" as="geometry" />
        </mxCell>
        <mxCell id="ZU3eSQO7JTyoVeqUJnHn-5" value="NULL" style="rounded=0;whiteSpace=wrap;html=1;container=0;" parent="CM6EW3pc83eYQOa1h4Vv-26" vertex="1">
          <mxGeometry x="110" width="40" height="40" as="geometry" />
        </mxCell>
        <mxCell id="ZU3eSQO7JTyoVeqUJnHn-6" value="INTEGER" style="rounded=0;whiteSpace=wrap;html=1;container=0;" parent="CM6EW3pc83eYQOa1h4Vv-26" vertex="1">
          <mxGeometry x="150" y="40" width="110" height="40" as="geometry" />
        </mxCell>
        <mxCell id="ZU3eSQO7JTyoVeqUJnHn-7" value="id атомата" style="rounded=0;whiteSpace=wrap;html=1;fillColor=#d5e8d4;strokeColor=default;container=0;" parent="CM6EW3pc83eYQOa1h4Vv-26" vertex="1">
          <mxGeometry y="40" width="110" height="40" as="geometry" />
        </mxCell>
        <mxCell id="ZU3eSQO7JTyoVeqUJnHn-8" value="" style="rounded=0;whiteSpace=wrap;html=1;fillColor=#f8cecc;strokeColor=#b85450;container=0;" parent="CM6EW3pc83eYQOa1h4Vv-26" vertex="1">
          <mxGeometry x="110" y="40" width="40" height="40" as="geometry" />
        </mxCell>
        <mxCell id="ZU3eSQO7JTyoVeqUJnHn-9" value="INTEGER" style="rounded=0;whiteSpace=wrap;html=1;container=0;" parent="CM6EW3pc83eYQOa1h4Vv-26" vertex="1">
          <mxGeometry x="150" y="80" width="110" height="40" as="geometry" />
        </mxCell>
        <mxCell id="ZU3eSQO7JTyoVeqUJnHn-10" value="статус работы" style="rounded=0;whiteSpace=wrap;html=1;container=0;" parent="CM6EW3pc83eYQOa1h4Vv-26" vertex="1">
          <mxGeometry y="80" width="110" height="40" as="geometry" />
        </mxCell>
        <mxCell id="ZU3eSQO7JTyoVeqUJnHn-11" value="" style="rounded=0;whiteSpace=wrap;html=1;fillColor=#f8cecc;strokeColor=#b85450;container=0;" parent="CM6EW3pc83eYQOa1h4Vv-26" vertex="1">
          <mxGeometry x="110" y="80" width="40" height="40" as="geometry" />
        </mxCell>
        <mxCell id="ZU3eSQO7JTyoVeqUJnHn-12" value="INTEGER" style="rounded=0;whiteSpace=wrap;html=1;container=0;" parent="CM6EW3pc83eYQOa1h4Vv-26" vertex="1">
          <mxGeometry x="150" y="120" width="110" height="40" as="geometry" />
        </mxCell>
        <mxCell id="ZU3eSQO7JTyoVeqUJnHn-13" value="кол-во товаров" style="rounded=0;whiteSpace=wrap;html=1;container=0;" parent="CM6EW3pc83eYQOa1h4Vv-26" vertex="1">
          <mxGeometry y="120" width="110" height="40" as="geometry" />
        </mxCell>
        <mxCell id="ZU3eSQO7JTyoVeqUJnHn-14" value="" style="rounded=0;whiteSpace=wrap;html=1;fillColor=#f8cecc;strokeColor=#b85450;container=0;" parent="CM6EW3pc83eYQOa1h4Vv-26" vertex="1">
          <mxGeometry x="110" y="120" width="40" height="40" as="geometry" />
        </mxCell>
        <mxCell id="2MEfKe1f7FnrXijyjFQL-1" value="INTEGER" style="rounded=0;whiteSpace=wrap;html=1;container=0;" parent="CM6EW3pc83eYQOa1h4Vv-26" vertex="1">
          <mxGeometry x="150" y="160" width="110" height="40" as="geometry" />
        </mxCell>
        <mxCell id="2MEfKe1f7FnrXijyjFQL-2" value="id зала" style="rounded=0;whiteSpace=wrap;html=1;container=0;fillColor=#fff2cc;strokeColor=default;" parent="CM6EW3pc83eYQOa1h4Vv-26" vertex="1">
          <mxGeometry y="160" width="110" height="40" as="geometry" />
        </mxCell>
        <mxCell id="2MEfKe1f7FnrXijyjFQL-3" value="" style="rounded=0;whiteSpace=wrap;html=1;fillColor=#f8cecc;strokeColor=#b85450;container=0;" parent="CM6EW3pc83eYQOa1h4Vv-26" vertex="1">
          <mxGeometry x="110" y="160" width="40" height="40" as="geometry" />
        </mxCell>
        <mxCell id="zLbHEXhdxPUPrancFk-x-24" value="" style="group" parent="1" vertex="1" connectable="0">
          <mxGeometry x="284" y="240" width="260" height="210" as="geometry" />
        </mxCell>
        <mxCell id="lEeC6YThONSp2Spw4q7P-2" value="" style="rounded=0;whiteSpace=wrap;html=1;container=0;" parent="zLbHEXhdxPUPrancFk-x-24" vertex="1">
          <mxGeometry width="260" height="210" as="geometry" />
        </mxCell>
        <mxCell id="lEeC6YThONSp2Spw4q7P-3" value="TYPE" style="rounded=0;whiteSpace=wrap;html=1;container=0;" parent="zLbHEXhdxPUPrancFk-x-24" vertex="1">
          <mxGeometry x="150" width="110" height="40" as="geometry" />
        </mxCell>
        <mxCell id="lEeC6YThONSp2Spw4q7P-4" value="шкафчик в раздевалке" style="rounded=0;whiteSpace=wrap;html=1;container=0;fillColor=#e1d5e7;strokeColor=#9673a6;" parent="zLbHEXhdxPUPrancFk-x-24" vertex="1">
          <mxGeometry width="110" height="40" as="geometry" />
        </mxCell>
        <mxCell id="lEeC6YThONSp2Spw4q7P-5" value="NULL" style="rounded=0;whiteSpace=wrap;html=1;container=0;" parent="zLbHEXhdxPUPrancFk-x-24" vertex="1">
          <mxGeometry x="110" width="40" height="40" as="geometry" />
        </mxCell>
        <mxCell id="lEeC6YThONSp2Spw4q7P-6" value="INTEGER" style="rounded=0;whiteSpace=wrap;html=1;container=0;" parent="zLbHEXhdxPUPrancFk-x-24" vertex="1">
          <mxGeometry x="150" y="40" width="110" height="40" as="geometry" />
        </mxCell>
        <mxCell id="lEeC6YThONSp2Spw4q7P-7" value="id шкафчика" style="rounded=0;whiteSpace=wrap;html=1;fillColor=#d5e8d4;strokeColor=default;container=0;" parent="zLbHEXhdxPUPrancFk-x-24" vertex="1">
          <mxGeometry y="40" width="110" height="40" as="geometry" />
        </mxCell>
        <mxCell id="lEeC6YThONSp2Spw4q7P-8" value="" style="rounded=0;whiteSpace=wrap;html=1;fillColor=#f8cecc;strokeColor=#b85450;container=0;" parent="zLbHEXhdxPUPrancFk-x-24" vertex="1">
          <mxGeometry x="110" y="40" width="40" height="40" as="geometry" />
        </mxCell>
        <mxCell id="lEeC6YThONSp2Spw4q7P-9" value="INTEGER" style="rounded=0;whiteSpace=wrap;html=1;container=0;" parent="zLbHEXhdxPUPrancFk-x-24" vertex="1">
          <mxGeometry x="150" y="80" width="110" height="40" as="geometry" />
        </mxCell>
        <mxCell id="lEeC6YThONSp2Spw4q7P-10" value="id пользователя" style="rounded=0;whiteSpace=wrap;html=1;container=0;fillColor=#fff2cc;strokeColor=#000000;" parent="zLbHEXhdxPUPrancFk-x-24" vertex="1">
          <mxGeometry y="80" width="110" height="40" as="geometry" />
        </mxCell>
        <mxCell id="lEeC6YThONSp2Spw4q7P-11" value="" style="rounded=0;whiteSpace=wrap;html=1;fillColor=#d5e8d4;strokeColor=#82b366;container=0;" parent="zLbHEXhdxPUPrancFk-x-24" vertex="1">
          <mxGeometry x="110" y="80" width="40" height="40" as="geometry" />
        </mxCell>
        <mxCell id="lEeC6YThONSp2Spw4q7P-12" value="BOOL" style="rounded=0;whiteSpace=wrap;html=1;container=0;" parent="zLbHEXhdxPUPrancFk-x-24" vertex="1">
          <mxGeometry x="150" y="120" width="110" height="40" as="geometry" />
        </mxCell>
        <mxCell id="lEeC6YThONSp2Spw4q7P-13" value="status" style="rounded=0;whiteSpace=wrap;html=1;container=0;" parent="zLbHEXhdxPUPrancFk-x-24" vertex="1">
          <mxGeometry y="120" width="110" height="40" as="geometry" />
        </mxCell>
        <mxCell id="lEeC6YThONSp2Spw4q7P-14" value="" style="rounded=0;whiteSpace=wrap;html=1;fillColor=#f8cecc;strokeColor=#b85450;container=0;" parent="zLbHEXhdxPUPrancFk-x-24" vertex="1">
          <mxGeometry x="110" y="120" width="40" height="40" as="geometry" />
        </mxCell>
        <mxCell id="zLbHEXhdxPUPrancFk-x-21" value="INTEGER" style="rounded=0;whiteSpace=wrap;html=1;container=0;" parent="zLbHEXhdxPUPrancFk-x-24" vertex="1">
          <mxGeometry x="150" y="160" width="110" height="40" as="geometry" />
        </mxCell>
        <mxCell id="zLbHEXhdxPUPrancFk-x-22" value="id зала" style="rounded=0;whiteSpace=wrap;html=1;container=0;" parent="zLbHEXhdxPUPrancFk-x-24" vertex="1">
          <mxGeometry y="160" width="110" height="40" as="geometry" />
        </mxCell>
        <mxCell id="zLbHEXhdxPUPrancFk-x-23" value="" style="rounded=0;whiteSpace=wrap;html=1;fillColor=#f8cecc;strokeColor=#b85450;container=0;" parent="zLbHEXhdxPUPrancFk-x-24" vertex="1">
          <mxGeometry x="110" y="160" width="40" height="40" as="geometry" />
        </mxCell>
        <mxCell id="b0rXWpcAoikA4TN5r0-M-4" style="edgeStyle=orthogonalEdgeStyle;shape=connector;rounded=1;orthogonalLoop=1;jettySize=auto;html=1;entryX=0;entryY=0.5;entryDx=0;entryDy=0;labelBackgroundColor=default;strokeColor=default;align=center;verticalAlign=middle;fontFamily=Helvetica;fontSize=11;fontColor=default;endArrow=classic;endFill=1;" parent="1" source="2MEfKe1f7FnrXijyjFQL-1" target="2MEfKe1f7FnrXijyjFQL-14" edge="1">
          <mxGeometry relative="1" as="geometry" />
        </mxCell>
        <mxCell id="b0rXWpcAoikA4TN5r0-M-5" style="edgeStyle=orthogonalEdgeStyle;shape=connector;rounded=1;orthogonalLoop=1;jettySize=auto;html=1;entryX=1;entryY=0.5;entryDx=0;entryDy=0;labelBackgroundColor=default;strokeColor=default;align=center;verticalAlign=middle;fontFamily=Helvetica;fontSize=11;fontColor=default;endArrow=classic;endFill=1;" parent="1" source="CM6EW3pc83eYQOa1h4Vv-5" target="CM6EW3pc83eYQOa1h4Vv-8" edge="1">
          <mxGeometry relative="1" as="geometry" />
        </mxCell>
        <mxCell id="b0rXWpcAoikA4TN5r0-M-12" style="edgeStyle=orthogonalEdgeStyle;shape=connector;rounded=1;orthogonalLoop=1;jettySize=auto;html=1;exitX=1;exitY=0.5;exitDx=0;exitDy=0;entryX=0;entryY=0.5;entryDx=0;entryDy=0;labelBackgroundColor=default;strokeColor=default;align=center;verticalAlign=middle;fontFamily=Helvetica;fontSize=11;fontColor=default;endArrow=classic;endFill=1;" parent="1" source="2wGGQ0aEAIYI7AyhiV_K-12" target="ZU3eSQO7JTyoVeqUJnHn-7" edge="1">
          <mxGeometry relative="1" as="geometry" />
        </mxCell>
        <mxCell id="b0rXWpcAoikA4TN5r0-M-13" style="edgeStyle=orthogonalEdgeStyle;shape=connector;rounded=1;orthogonalLoop=1;jettySize=auto;html=1;exitX=1;exitY=0.5;exitDx=0;exitDy=0;entryX=0;entryY=0.5;entryDx=0;entryDy=0;labelBackgroundColor=default;strokeColor=default;align=center;verticalAlign=middle;fontFamily=Helvetica;fontSize=11;fontColor=default;endArrow=classic;endFill=1;" parent="1" source="2wGGQ0aEAIYI7AyhiV_K-9" target="SY3xnQZ9ESmQ8LTkHdD1-7" edge="1">
          <mxGeometry relative="1" as="geometry" />
        </mxCell>
        <mxCell id="b0rXWpcAoikA4TN5r0-M-14" style="edgeStyle=orthogonalEdgeStyle;shape=connector;rounded=1;orthogonalLoop=1;jettySize=auto;html=1;exitX=0;exitY=0.5;exitDx=0;exitDy=0;entryX=0;entryY=0.5;entryDx=0;entryDy=0;labelBackgroundColor=default;strokeColor=default;align=center;verticalAlign=middle;fontFamily=Helvetica;fontSize=11;fontColor=default;endArrow=classic;endFill=1;" parent="1" source="GulFJNOfo-MHnuBH-KW7-13" target="ZU3eSQO7JTyoVeqUJnHn-7" edge="1">
          <mxGeometry relative="1" as="geometry" />
        </mxCell>
        <mxCell id="b0rXWpcAoikA4TN5r0-M-15" style="edgeStyle=orthogonalEdgeStyle;shape=connector;rounded=1;orthogonalLoop=1;jettySize=auto;html=1;exitX=1;exitY=0.5;exitDx=0;exitDy=0;entryX=0;entryY=0.5;entryDx=0;entryDy=0;labelBackgroundColor=default;strokeColor=default;align=center;verticalAlign=middle;fontFamily=Helvetica;fontSize=11;fontColor=default;endArrow=classic;endFill=1;" parent="1" source="GulFJNOfo-MHnuBH-KW7-9" target="XTSCfcso8maByqGfd6Gx-43" edge="1">
          <mxGeometry relative="1" as="geometry" />
        </mxCell>
        <mxCell id="b0rXWpcAoikA4TN5r0-M-16" value="" style="group" parent="1" vertex="1" connectable="0">
          <mxGeometry x="-70" y="-80" width="260" height="410" as="geometry" />
        </mxCell>
        <mxCell id="XTSCfcso8maByqGfd6Gx-39" value="" style="rounded=0;whiteSpace=wrap;html=1;container=0;" parent="b0rXWpcAoikA4TN5r0-M-16" vertex="1">
          <mxGeometry width="260" height="410" as="geometry" />
        </mxCell>
        <mxCell id="XTSCfcso8maByqGfd6Gx-38" value="TYPE" style="rounded=0;whiteSpace=wrap;html=1;" parent="b0rXWpcAoikA4TN5r0-M-16" vertex="1">
          <mxGeometry x="150" width="110" height="40" as="geometry" />
        </mxCell>
        <mxCell id="XTSCfcso8maByqGfd6Gx-37" value="пользователь" style="rounded=0;whiteSpace=wrap;html=1;fillColor=#e1d5e7;strokeColor=#9673a6;" parent="b0rXWpcAoikA4TN5r0-M-16" vertex="1">
          <mxGeometry width="110" height="40" as="geometry" />
        </mxCell>
        <mxCell id="XTSCfcso8maByqGfd6Gx-41" value="NULL" style="rounded=0;whiteSpace=wrap;html=1;" parent="b0rXWpcAoikA4TN5r0-M-16" vertex="1">
          <mxGeometry x="110" width="40" height="40" as="geometry" />
        </mxCell>
        <mxCell id="XTSCfcso8maByqGfd6Gx-42" value="INTEGER" style="rounded=0;whiteSpace=wrap;html=1;" parent="b0rXWpcAoikA4TN5r0-M-16" vertex="1">
          <mxGeometry x="150" y="40" width="110" height="40" as="geometry" />
        </mxCell>
        <mxCell id="XTSCfcso8maByqGfd6Gx-43" value="id пользователя" style="rounded=0;whiteSpace=wrap;html=1;fillColor=#d5e8d4;strokeColor=default;" parent="b0rXWpcAoikA4TN5r0-M-16" vertex="1">
          <mxGeometry y="40" width="110" height="40" as="geometry" />
        </mxCell>
        <mxCell id="XTSCfcso8maByqGfd6Gx-44" value="" style="rounded=0;whiteSpace=wrap;html=1;strokeColor=#b85450;fillColor=#f8cecc;" parent="b0rXWpcAoikA4TN5r0-M-16" vertex="1">
          <mxGeometry x="110" y="40" width="40" height="40" as="geometry" />
        </mxCell>
        <mxCell id="XTSCfcso8maByqGfd6Gx-45" value="INTEGER" style="rounded=0;whiteSpace=wrap;html=1;" parent="b0rXWpcAoikA4TN5r0-M-16" vertex="1">
          <mxGeometry x="150" y="80" width="110" height="40" as="geometry" />
        </mxCell>
        <mxCell id="XTSCfcso8maByqGfd6Gx-46" value="id абонемента" style="rounded=0;whiteSpace=wrap;html=1;fillColor=#fff2cc;strokeColor=default;" parent="b0rXWpcAoikA4TN5r0-M-16" vertex="1">
          <mxGeometry y="80" width="110" height="40" as="geometry" />
        </mxCell>
        <mxCell id="XTSCfcso8maByqGfd6Gx-47" value="" style="rounded=0;whiteSpace=wrap;html=1;fillColor=#d5e8d4;strokeColor=#82b366;" parent="b0rXWpcAoikA4TN5r0-M-16" vertex="1">
          <mxGeometry x="110" y="80" width="40" height="40" as="geometry" />
        </mxCell>
        <mxCell id="XTSCfcso8maByqGfd6Gx-48" value="VARCHAR(20)" style="rounded=0;whiteSpace=wrap;html=1;" parent="b0rXWpcAoikA4TN5r0-M-16" vertex="1">
          <mxGeometry x="150" y="120" width="110" height="40" as="geometry" />
        </mxCell>
        <mxCell id="XTSCfcso8maByqGfd6Gx-49" value="имя" style="rounded=0;whiteSpace=wrap;html=1;" parent="b0rXWpcAoikA4TN5r0-M-16" vertex="1">
          <mxGeometry y="120" width="110" height="40" as="geometry" />
        </mxCell>
        <mxCell id="XTSCfcso8maByqGfd6Gx-50" value="" style="rounded=0;whiteSpace=wrap;html=1;strokeColor=#b85450;fillColor=#f8cecc;" parent="b0rXWpcAoikA4TN5r0-M-16" vertex="1">
          <mxGeometry x="110" y="120" width="40" height="40" as="geometry" />
        </mxCell>
        <mxCell id="XTSCfcso8maByqGfd6Gx-51" value="VARCHAR(35)" style="rounded=0;whiteSpace=wrap;html=1;" parent="b0rXWpcAoikA4TN5r0-M-16" vertex="1">
          <mxGeometry x="150" y="160" width="110" height="40" as="geometry" />
        </mxCell>
        <mxCell id="XTSCfcso8maByqGfd6Gx-52" value="фамилия" style="rounded=0;whiteSpace=wrap;html=1;" parent="b0rXWpcAoikA4TN5r0-M-16" vertex="1">
          <mxGeometry y="160" width="110" height="40" as="geometry" />
        </mxCell>
        <mxCell id="XTSCfcso8maByqGfd6Gx-53" value="" style="rounded=0;whiteSpace=wrap;html=1;" parent="b0rXWpcAoikA4TN5r0-M-16" vertex="1">
          <mxGeometry x="110" y="200" width="40" height="40" as="geometry" />
        </mxCell>
        <mxCell id="XTSCfcso8maByqGfd6Gx-54" value="VARCHAR(20)" style="rounded=0;whiteSpace=wrap;html=1;" parent="b0rXWpcAoikA4TN5r0-M-16" vertex="1">
          <mxGeometry x="150" y="200" width="110" height="40" as="geometry" />
        </mxCell>
        <mxCell id="XTSCfcso8maByqGfd6Gx-55" value="возраст" style="rounded=0;whiteSpace=wrap;html=1;" parent="b0rXWpcAoikA4TN5r0-M-16" vertex="1">
          <mxGeometry y="240" width="110" height="40" as="geometry" />
        </mxCell>
        <mxCell id="XTSCfcso8maByqGfd6Gx-56" value="" style="rounded=0;whiteSpace=wrap;html=1;strokeColor=#82b366;fillColor=#d5e8d4;" parent="b0rXWpcAoikA4TN5r0-M-16" vertex="1">
          <mxGeometry x="110" y="200" width="40" height="40" as="geometry" />
        </mxCell>
        <mxCell id="XTSCfcso8maByqGfd6Gx-57" value="INTEGER" style="rounded=0;whiteSpace=wrap;html=1;" parent="b0rXWpcAoikA4TN5r0-M-16" vertex="1">
          <mxGeometry x="150" y="240" width="110" height="40" as="geometry" />
        </mxCell>
        <mxCell id="XTSCfcso8maByqGfd6Gx-58" value="mail" style="rounded=0;whiteSpace=wrap;html=1;" parent="b0rXWpcAoikA4TN5r0-M-16" vertex="1">
          <mxGeometry y="280" width="110" height="40" as="geometry" />
        </mxCell>
        <mxCell id="XTSCfcso8maByqGfd6Gx-59" value="" style="rounded=0;whiteSpace=wrap;html=1;strokeColor=#b85450;fillColor=#f8cecc;" parent="b0rXWpcAoikA4TN5r0-M-16" vertex="1">
          <mxGeometry x="110" y="240" width="40" height="40" as="geometry" />
        </mxCell>
        <mxCell id="XTSCfcso8maByqGfd6Gx-60" value="VARCHAR(25)" style="rounded=0;whiteSpace=wrap;html=1;" parent="b0rXWpcAoikA4TN5r0-M-16" vertex="1">
          <mxGeometry x="150" y="280" width="110" height="40" as="geometry" />
        </mxCell>
        <mxCell id="XTSCfcso8maByqGfd6Gx-62" value="" style="rounded=0;whiteSpace=wrap;html=1;strokeColor=#82b366;fillColor=#d5e8d4;" parent="b0rXWpcAoikA4TN5r0-M-16" vertex="1">
          <mxGeometry x="110" y="280" width="40" height="40" as="geometry" />
        </mxCell>
        <mxCell id="XTSCfcso8maByqGfd6Gx-64" value="" style="rounded=0;whiteSpace=wrap;html=1;strokeColor=#b85450;fillColor=#f8cecc;" parent="b0rXWpcAoikA4TN5r0-M-16" vertex="1">
          <mxGeometry x="110" y="160" width="40" height="40" as="geometry" />
        </mxCell>
        <mxCell id="XTSCfcso8maByqGfd6Gx-61" value="numb" style="rounded=0;whiteSpace=wrap;html=1;strokeColor=default;" parent="b0rXWpcAoikA4TN5r0-M-16" vertex="1">
          <mxGeometry y="320" width="110" height="40" as="geometry" />
        </mxCell>
        <mxCell id="FWfkG1bmhZOnWAMwFlLW-3" value="INTEGER" style="rounded=0;whiteSpace=wrap;html=1;" parent="b0rXWpcAoikA4TN5r0-M-16" vertex="1">
          <mxGeometry x="150" y="320" width="110" height="40" as="geometry" />
        </mxCell>
        <mxCell id="FWfkG1bmhZOnWAMwFlLW-4" value="" style="rounded=0;whiteSpace=wrap;html=1;strokeColor=#b85450;fillColor=#f8cecc;" parent="b0rXWpcAoikA4TN5r0-M-16" vertex="1">
          <mxGeometry x="110" y="320" width="40" height="40" as="geometry" />
        </mxCell>
        <mxCell id="FWfkG1bmhZOnWAMwFlLW-5" value="sex" style="rounded=0;whiteSpace=wrap;html=1;strokeColor=default;" parent="b0rXWpcAoikA4TN5r0-M-16" vertex="1">
          <mxGeometry y="360" width="110" height="40" as="geometry" />
        </mxCell>
        <mxCell id="FWfkG1bmhZOnWAMwFlLW-6" value="VARCHAR(1)" style="rounded=0;whiteSpace=wrap;html=1;" parent="b0rXWpcAoikA4TN5r0-M-16" vertex="1">
          <mxGeometry x="150" y="360" width="110" height="40" as="geometry" />
        </mxCell>
        <mxCell id="FWfkG1bmhZOnWAMwFlLW-7" value="" style="rounded=0;whiteSpace=wrap;html=1;strokeColor=#82b366;fillColor=#d5e8d4;" parent="b0rXWpcAoikA4TN5r0-M-16" vertex="1">
          <mxGeometry x="110" y="360" width="40" height="40" as="geometry" />
        </mxCell>
        <mxCell id="eKwWdkmg1OkOoB-3domw-3" value="отчество" style="rounded=0;whiteSpace=wrap;html=1;strokeColor=default;" parent="b0rXWpcAoikA4TN5r0-M-16" vertex="1">
          <mxGeometry y="200" width="110" height="40" as="geometry" />
        </mxCell>
        <mxCell id="b0rXWpcAoikA4TN5r0-M-21" value="" style="group" parent="1" vertex="1" connectable="0">
          <mxGeometry x="-70" y="-400" width="260" height="250" as="geometry" />
        </mxCell>
        <mxCell id="zLbHEXhdxPUPrancFk-x-26" value="" style="rounded=0;whiteSpace=wrap;html=1;container=0;" parent="b0rXWpcAoikA4TN5r0-M-21" vertex="1">
          <mxGeometry width="260" height="250" as="geometry" />
        </mxCell>
        <mxCell id="zLbHEXhdxPUPrancFk-x-27" value="TYPE" style="rounded=0;whiteSpace=wrap;html=1;container=0;" parent="b0rXWpcAoikA4TN5r0-M-21" vertex="1">
          <mxGeometry x="150" width="110" height="40" as="geometry" />
        </mxCell>
        <mxCell id="zLbHEXhdxPUPrancFk-x-28" value="пользователь в зале" style="rounded=0;whiteSpace=wrap;html=1;container=0;fillColor=#e1d5e7;strokeColor=#9673a6;" parent="b0rXWpcAoikA4TN5r0-M-21" vertex="1">
          <mxGeometry width="110" height="40" as="geometry" />
        </mxCell>
        <mxCell id="zLbHEXhdxPUPrancFk-x-29" value="NULL" style="rounded=0;whiteSpace=wrap;html=1;container=0;" parent="b0rXWpcAoikA4TN5r0-M-21" vertex="1">
          <mxGeometry x="110" width="40" height="40" as="geometry" />
        </mxCell>
        <mxCell id="zLbHEXhdxPUPrancFk-x-30" value="INTEGER" style="rounded=0;whiteSpace=wrap;html=1;container=0;" parent="b0rXWpcAoikA4TN5r0-M-21" vertex="1">
          <mxGeometry x="150" y="40" width="110" height="40" as="geometry" />
        </mxCell>
        <mxCell id="zLbHEXhdxPUPrancFk-x-31" value="id пользователя в зале" style="rounded=0;whiteSpace=wrap;html=1;fillColor=#d5e8d4;strokeColor=default;container=0;" parent="b0rXWpcAoikA4TN5r0-M-21" vertex="1">
          <mxGeometry y="40" width="110" height="40" as="geometry" />
        </mxCell>
        <mxCell id="zLbHEXhdxPUPrancFk-x-32" value="" style="rounded=0;whiteSpace=wrap;html=1;fillColor=#f8cecc;strokeColor=#b85450;container=0;" parent="b0rXWpcAoikA4TN5r0-M-21" vertex="1">
          <mxGeometry x="110" y="40" width="40" height="40" as="geometry" />
        </mxCell>
        <mxCell id="zLbHEXhdxPUPrancFk-x-33" value="INTEGER" style="rounded=0;whiteSpace=wrap;html=1;container=0;" parent="b0rXWpcAoikA4TN5r0-M-21" vertex="1">
          <mxGeometry x="150" y="80" width="110" height="40" as="geometry" />
        </mxCell>
        <mxCell id="zLbHEXhdxPUPrancFk-x-34" value="id зала" style="rounded=0;whiteSpace=wrap;html=1;container=0;fillColor=#fff2cc;strokeColor=default;" parent="b0rXWpcAoikA4TN5r0-M-21" vertex="1">
          <mxGeometry y="80" width="110" height="40" as="geometry" />
        </mxCell>
        <mxCell id="zLbHEXhdxPUPrancFk-x-35" value="" style="rounded=0;whiteSpace=wrap;html=1;fillColor=#f8cecc;strokeColor=#b85450;container=0;" parent="b0rXWpcAoikA4TN5r0-M-21" vertex="1">
          <mxGeometry x="110" y="80" width="40" height="40" as="geometry" />
        </mxCell>
        <mxCell id="zLbHEXhdxPUPrancFk-x-36" value="INTEGER" style="rounded=0;whiteSpace=wrap;html=1;container=0;" parent="b0rXWpcAoikA4TN5r0-M-21" vertex="1">
          <mxGeometry x="150" y="120" width="110" height="40" as="geometry" />
        </mxCell>
        <mxCell id="zLbHEXhdxPUPrancFk-x-37" value="id пользователя" style="rounded=0;whiteSpace=wrap;html=1;container=0;fillColor=#fff2cc;strokeColor=#000000;" parent="b0rXWpcAoikA4TN5r0-M-21" vertex="1">
          <mxGeometry y="120" width="110" height="40" as="geometry" />
        </mxCell>
        <mxCell id="zLbHEXhdxPUPrancFk-x-38" value="" style="rounded=0;whiteSpace=wrap;html=1;fillColor=#f8cecc;strokeColor=#b85450;container=0;" parent="b0rXWpcAoikA4TN5r0-M-21" vertex="1">
          <mxGeometry x="110" y="120" width="40" height="40" as="geometry" />
        </mxCell>
        <mxCell id="zLbHEXhdxPUPrancFk-x-39" value="DATETIME" style="rounded=0;whiteSpace=wrap;html=1;container=0;" parent="b0rXWpcAoikA4TN5r0-M-21" vertex="1">
          <mxGeometry x="150" y="160" width="110" height="40" as="geometry" />
        </mxCell>
        <mxCell id="zLbHEXhdxPUPrancFk-x-40" value="дата входа" style="rounded=0;whiteSpace=wrap;html=1;container=0;" parent="b0rXWpcAoikA4TN5r0-M-21" vertex="1">
          <mxGeometry y="160" width="110" height="40" as="geometry" />
        </mxCell>
        <mxCell id="zLbHEXhdxPUPrancFk-x-41" value="" style="rounded=0;whiteSpace=wrap;html=1;fillColor=#f8cecc;strokeColor=#b85450;container=0;" parent="b0rXWpcAoikA4TN5r0-M-21" vertex="1">
          <mxGeometry x="110" y="160" width="40" height="40" as="geometry" />
        </mxCell>
        <mxCell id="b0rXWpcAoikA4TN5r0-M-18" value="DATETIME" style="rounded=0;whiteSpace=wrap;html=1;container=0;" parent="b0rXWpcAoikA4TN5r0-M-21" vertex="1">
          <mxGeometry x="150" y="200" width="110" height="40" as="geometry" />
        </mxCell>
        <mxCell id="b0rXWpcAoikA4TN5r0-M-19" value="id шкафчика" style="rounded=0;whiteSpace=wrap;html=1;container=0;fillColor=#fff2cc;strokeColor=#000000;" parent="b0rXWpcAoikA4TN5r0-M-21" vertex="1">
          <mxGeometry y="200" width="110" height="40" as="geometry" />
        </mxCell>
        <mxCell id="b0rXWpcAoikA4TN5r0-M-20" value="" style="rounded=0;whiteSpace=wrap;html=1;fillColor=#f8cecc;strokeColor=#b85450;container=0;" parent="b0rXWpcAoikA4TN5r0-M-21" vertex="1">
          <mxGeometry x="110" y="200" width="40" height="40" as="geometry" />
        </mxCell>
        <mxCell id="2VZ59mPElb28Aym1B9do-3" style="edgeStyle=orthogonalEdgeStyle;shape=connector;rounded=1;orthogonalLoop=1;jettySize=auto;html=1;exitX=0;exitY=0.5;exitDx=0;exitDy=0;entryX=0;entryY=0.5;entryDx=0;entryDy=0;labelBackgroundColor=default;strokeColor=default;align=center;verticalAlign=middle;fontFamily=Helvetica;fontSize=11;fontColor=default;endArrow=classic;endFill=1;" parent="1" source="zLbHEXhdxPUPrancFk-x-34" target="2MEfKe1f7FnrXijyjFQL-14" edge="1">
          <mxGeometry relative="1" as="geometry" />
        </mxCell>
        <mxCell id="2VZ59mPElb28Aym1B9do-4" style="edgeStyle=orthogonalEdgeStyle;shape=connector;rounded=1;orthogonalLoop=1;jettySize=auto;html=1;exitX=0;exitY=0.5;exitDx=0;exitDy=0;entryX=0;entryY=0.5;entryDx=0;entryDy=0;labelBackgroundColor=default;strokeColor=default;align=center;verticalAlign=middle;fontFamily=Helvetica;fontSize=11;fontColor=default;endArrow=classic;endFill=1;" parent="1" source="zLbHEXhdxPUPrancFk-x-37" target="XTSCfcso8maByqGfd6Gx-43" edge="1">
          <mxGeometry relative="1" as="geometry" />
        </mxCell>
        <mxCell id="2VZ59mPElb28Aym1B9do-5" style="edgeStyle=orthogonalEdgeStyle;shape=connector;rounded=1;orthogonalLoop=1;jettySize=auto;html=1;exitX=1;exitY=0.5;exitDx=0;exitDy=0;entryX=0;entryY=0.5;entryDx=0;entryDy=0;labelBackgroundColor=default;strokeColor=default;align=center;verticalAlign=middle;fontFamily=Helvetica;fontSize=11;fontColor=default;endArrow=classic;endFill=1;" parent="1" source="b0rXWpcAoikA4TN5r0-M-18" target="lEeC6YThONSp2Spw4q7P-7" edge="1">
          <mxGeometry relative="1" as="geometry" />
        </mxCell>
        <mxCell id="2VZ59mPElb28Aym1B9do-6" style="edgeStyle=orthogonalEdgeStyle;shape=connector;rounded=1;orthogonalLoop=1;jettySize=auto;html=1;exitX=1;exitY=0.5;exitDx=0;exitDy=0;entryX=0;entryY=0.5;entryDx=0;entryDy=0;labelBackgroundColor=default;strokeColor=default;align=center;verticalAlign=middle;fontFamily=Helvetica;fontSize=11;fontColor=default;endArrow=classic;endFill=1;" parent="1" source="XTSCfcso8maByqGfd6Gx-45" target="HQeLWs8wuf3AgurrJEJk-22" edge="1">
          <mxGeometry relative="1" as="geometry" />
        </mxCell>
        <mxCell id="2VZ59mPElb28Aym1B9do-8" style="edgeStyle=orthogonalEdgeStyle;shape=connector;rounded=1;orthogonalLoop=1;jettySize=auto;html=1;exitX=1;exitY=0.5;exitDx=0;exitDy=0;entryX=1;entryY=0.5;entryDx=0;entryDy=0;labelBackgroundColor=default;strokeColor=default;align=center;verticalAlign=middle;fontFamily=Helvetica;fontSize=11;fontColor=default;endArrow=classic;endFill=1;" parent="1" source="4m2AMOnflhfGbuUh0Fhk-9" target="XTSCfcso8maByqGfd6Gx-42" edge="1">
          <mxGeometry relative="1" as="geometry" />
        </mxCell>
        <mxCell id="2VZ59mPElb28Aym1B9do-9" style="edgeStyle=orthogonalEdgeStyle;shape=connector;rounded=1;orthogonalLoop=1;jettySize=auto;html=1;exitX=0;exitY=0.5;exitDx=0;exitDy=0;entryX=1;entryY=0.5;entryDx=0;entryDy=0;labelBackgroundColor=default;strokeColor=default;align=center;verticalAlign=middle;fontFamily=Helvetica;fontSize=11;fontColor=default;endArrow=classic;endFill=1;" parent="1" source="P2IMU7utsKrlOrNiFUa2-19" target="2MEfKe1f7FnrXijyjFQL-13" edge="1">
          <mxGeometry relative="1" as="geometry" />
        </mxCell>
        <mxCell id="2VZ59mPElb28Aym1B9do-10" style="edgeStyle=orthogonalEdgeStyle;shape=connector;rounded=1;orthogonalLoop=1;jettySize=auto;html=1;exitX=0;exitY=0.5;exitDx=0;exitDy=0;entryX=1;entryY=0.5;entryDx=0;entryDy=0;labelBackgroundColor=default;strokeColor=default;align=center;verticalAlign=middle;fontFamily=Helvetica;fontSize=11;fontColor=default;endArrow=classic;endFill=1;" parent="1" source="lEeC6YThONSp2Spw4q7P-10" target="XTSCfcso8maByqGfd6Gx-42" edge="1">
          <mxGeometry relative="1" as="geometry">
            <Array as="points">
              <mxPoint x="210" y="340" />
              <mxPoint x="210" y="-20" />
            </Array>
          </mxGeometry>
        </mxCell>
        <mxCell id="2VZ59mPElb28Aym1B9do-11" style="edgeStyle=orthogonalEdgeStyle;shape=connector;rounded=1;orthogonalLoop=1;jettySize=auto;html=1;exitX=1;exitY=0.5;exitDx=0;exitDy=0;entryX=0;entryY=0.5;entryDx=0;entryDy=0;labelBackgroundColor=default;strokeColor=default;align=center;verticalAlign=middle;fontFamily=Helvetica;fontSize=11;fontColor=default;endArrow=classic;endFill=1;" parent="1" source="4QoQHr9adkOKRSqkjhAx-25" target="btpcVV04pxlkup-xjZqC-7" edge="1">
          <mxGeometry relative="1" as="geometry" />
        </mxCell>
        <mxCell id="2VZ59mPElb28Aym1B9do-13" style="edgeStyle=orthogonalEdgeStyle;shape=connector;rounded=1;orthogonalLoop=1;jettySize=auto;html=1;exitX=0;exitY=0.5;exitDx=0;exitDy=0;entryX=1;entryY=0.5;entryDx=0;entryDy=0;labelBackgroundColor=default;strokeColor=default;align=center;verticalAlign=middle;fontFamily=Helvetica;fontSize=11;fontColor=default;endArrow=classic;endFill=1;" parent="1" source="4QoQHr9adkOKRSqkjhAx-29" target="4m2AMOnflhfGbuUh0Fhk-6" edge="1">
          <mxGeometry relative="1" as="geometry" />
        </mxCell>
        <mxCell id="2VZ59mPElb28Aym1B9do-14" style="edgeStyle=orthogonalEdgeStyle;shape=connector;rounded=1;orthogonalLoop=1;jettySize=auto;html=1;exitX=1;exitY=0.5;exitDx=0;exitDy=0;entryX=0;entryY=0.5;entryDx=0;entryDy=0;labelBackgroundColor=default;strokeColor=default;align=center;verticalAlign=middle;fontFamily=Helvetica;fontSize=11;fontColor=default;endArrow=classic;endFill=1;" parent="1" source="4QoQHr9adkOKRSqkjhAx-47" target="btpcVV04pxlkup-xjZqC-7" edge="1">
          <mxGeometry relative="1" as="geometry">
            <Array as="points">
              <mxPoint x="560" y="-100" />
              <mxPoint x="560" y="-130" />
              <mxPoint x="600" y="-130" />
              <mxPoint x="600" y="-105" />
            </Array>
          </mxGeometry>
        </mxCell>
        <mxCell id="2VZ59mPElb28Aym1B9do-15" style="edgeStyle=orthogonalEdgeStyle;shape=connector;rounded=1;orthogonalLoop=1;jettySize=auto;html=1;exitX=0;exitY=0.5;exitDx=0;exitDy=0;entryX=1;entryY=0.5;entryDx=0;entryDy=0;labelBackgroundColor=default;strokeColor=default;align=center;verticalAlign=middle;fontFamily=Helvetica;fontSize=11;fontColor=default;endArrow=classic;endFill=1;" parent="1" source="4QoQHr9adkOKRSqkjhAx-51" target="XTSCfcso8maByqGfd6Gx-42" edge="1">
          <mxGeometry relative="1" as="geometry">
            <Array as="points">
              <mxPoint x="220" y="-60" />
              <mxPoint x="220" y="-20" />
            </Array>
          </mxGeometry>
        </mxCell>
        <mxCell id="2VZ59mPElb28Aym1B9do-16" style="edgeStyle=orthogonalEdgeStyle;shape=connector;rounded=1;orthogonalLoop=1;jettySize=auto;html=1;exitX=0;exitY=0.5;exitDx=0;exitDy=0;entryX=1;entryY=0.5;entryDx=0;entryDy=0;labelBackgroundColor=default;strokeColor=default;align=center;verticalAlign=middle;fontFamily=Helvetica;fontSize=11;fontColor=default;endArrow=classic;endFill=1;" parent="1" source="0sgCSy3l8JSNYPPnjqlW-3" target="2MEfKe1f7FnrXijyjFQL-13" edge="1">
          <mxGeometry relative="1" as="geometry">
            <Array as="points">
              <mxPoint x="590" y="95" />
              <mxPoint x="590" y="470" />
              <mxPoint x="250" y="470" />
              <mxPoint x="250" y="740" />
            </Array>
          </mxGeometry>
        </mxCell>
        <mxCell id="oo_kg1gg57eCzcJUHWiD-1" value="" style="group" parent="1" vertex="1" connectable="0">
          <mxGeometry x="-740" y="400" width="260" height="130" as="geometry" />
        </mxCell>
        <mxCell id="2wGGQ0aEAIYI7AyhiV_K-1" value="" style="group;strokeColor=default;container=0;" parent="oo_kg1gg57eCzcJUHWiD-1" vertex="1" connectable="0">
          <mxGeometry width="260" height="130" as="geometry" />
        </mxCell>
        <mxCell id="2wGGQ0aEAIYI7AyhiV_K-3" value="TYPE" style="rounded=0;whiteSpace=wrap;html=1;container=0;" parent="oo_kg1gg57eCzcJUHWiD-1" vertex="1">
          <mxGeometry x="150" width="110" height="40" as="geometry" />
        </mxCell>
        <mxCell id="2wGGQ0aEAIYI7AyhiV_K-4" value="товар в автомате" style="rounded=0;whiteSpace=wrap;html=1;container=0;fillColor=#e1d5e7;strokeColor=#9673a6;" parent="oo_kg1gg57eCzcJUHWiD-1" vertex="1">
          <mxGeometry width="110" height="40" as="geometry" />
        </mxCell>
        <mxCell id="2wGGQ0aEAIYI7AyhiV_K-5" value="NULL" style="rounded=0;whiteSpace=wrap;html=1;container=0;" parent="oo_kg1gg57eCzcJUHWiD-1" vertex="1">
          <mxGeometry x="110" width="40" height="40" as="geometry" />
        </mxCell>
        <mxCell id="2wGGQ0aEAIYI7AyhiV_K-9" value="INTEGER" style="rounded=0;whiteSpace=wrap;html=1;container=0;" parent="oo_kg1gg57eCzcJUHWiD-1" vertex="1">
          <mxGeometry x="150" y="80" width="110" height="40" as="geometry" />
        </mxCell>
        <mxCell id="2wGGQ0aEAIYI7AyhiV_K-10" value="id товара" style="rounded=0;whiteSpace=wrap;html=1;container=0;fillColor=#fff2cc;strokeColor=default;" parent="oo_kg1gg57eCzcJUHWiD-1" vertex="1">
          <mxGeometry y="80" width="110" height="40" as="geometry" />
        </mxCell>
        <mxCell id="2wGGQ0aEAIYI7AyhiV_K-11" value="" style="rounded=0;whiteSpace=wrap;html=1;fillColor=#f8cecc;strokeColor=#b85450;container=0;" parent="oo_kg1gg57eCzcJUHWiD-1" vertex="1">
          <mxGeometry x="110" y="80" width="40" height="40" as="geometry" />
        </mxCell>
        <mxCell id="2wGGQ0aEAIYI7AyhiV_K-12" value="INTEGER" style="rounded=0;whiteSpace=wrap;html=1;container=0;" parent="oo_kg1gg57eCzcJUHWiD-1" vertex="1">
          <mxGeometry x="150" y="40" width="110" height="40" as="geometry" />
        </mxCell>
        <mxCell id="2wGGQ0aEAIYI7AyhiV_K-13" value="id автомата" style="rounded=0;whiteSpace=wrap;html=1;container=0;fillColor=#fff2cc;strokeColor=default;" parent="oo_kg1gg57eCzcJUHWiD-1" vertex="1">
          <mxGeometry y="40" width="110" height="40" as="geometry" />
        </mxCell>
        <mxCell id="2wGGQ0aEAIYI7AyhiV_K-14" value="" style="rounded=0;whiteSpace=wrap;html=1;fillColor=#f8cecc;strokeColor=#b85450;container=0;" parent="oo_kg1gg57eCzcJUHWiD-1" vertex="1">
          <mxGeometry x="110" y="40" width="40" height="40" as="geometry" />
        </mxCell>
        <mxCell id="oo_kg1gg57eCzcJUHWiD-9" value="" style="group;fillColor=#d5e8d4;strokeColor=#82b366;" parent="1" vertex="1" connectable="0">
          <mxGeometry x="620" y="-165" width="260" height="335" as="geometry" />
        </mxCell>
        <mxCell id="btpcVV04pxlkup-xjZqC-2" value="" style="rounded=0;whiteSpace=wrap;html=1;container=0;" parent="oo_kg1gg57eCzcJUHWiD-9" vertex="1">
          <mxGeometry width="260" height="335" as="geometry" />
        </mxCell>
        <mxCell id="btpcVV04pxlkup-xjZqC-3" value="TYPE" style="rounded=0;whiteSpace=wrap;html=1;container=0;" parent="oo_kg1gg57eCzcJUHWiD-9" vertex="1">
          <mxGeometry x="150" width="110" height="40" as="geometry" />
        </mxCell>
        <mxCell id="btpcVV04pxlkup-xjZqC-4" value="событие" style="rounded=0;whiteSpace=wrap;html=1;container=0;fillColor=#e1d5e7;strokeColor=#9673a6;" parent="oo_kg1gg57eCzcJUHWiD-9" vertex="1">
          <mxGeometry width="110" height="40" as="geometry" />
        </mxCell>
        <mxCell id="btpcVV04pxlkup-xjZqC-5" value="NULL" style="rounded=0;whiteSpace=wrap;html=1;container=0;" parent="oo_kg1gg57eCzcJUHWiD-9" vertex="1">
          <mxGeometry x="110" width="40" height="40" as="geometry" />
        </mxCell>
        <mxCell id="btpcVV04pxlkup-xjZqC-6" value="INTEGER" style="rounded=0;whiteSpace=wrap;html=1;container=0;" parent="oo_kg1gg57eCzcJUHWiD-9" vertex="1">
          <mxGeometry x="150" y="40" width="110" height="40" as="geometry" />
        </mxCell>
        <mxCell id="btpcVV04pxlkup-xjZqC-7" value="id события" style="rounded=0;whiteSpace=wrap;html=1;fillColor=#d5e8d4;strokeColor=default;container=0;" parent="oo_kg1gg57eCzcJUHWiD-9" vertex="1">
          <mxGeometry y="40" width="110" height="40" as="geometry" />
        </mxCell>
        <mxCell id="btpcVV04pxlkup-xjZqC-8" value="" style="rounded=0;whiteSpace=wrap;html=1;fillColor=#f8cecc;strokeColor=#b85450;container=0;" parent="oo_kg1gg57eCzcJUHWiD-9" vertex="1">
          <mxGeometry x="110" y="40" width="40" height="40" as="geometry" />
        </mxCell>
        <mxCell id="btpcVV04pxlkup-xjZqC-9" value="IINTEGER" style="rounded=0;whiteSpace=wrap;html=1;container=0;" parent="oo_kg1gg57eCzcJUHWiD-9" vertex="1">
          <mxGeometry x="150" y="80" width="110" height="40" as="geometry" />
        </mxCell>
        <mxCell id="btpcVV04pxlkup-xjZqC-10" value="название" style="rounded=0;whiteSpace=wrap;html=1;container=0;" parent="oo_kg1gg57eCzcJUHWiD-9" vertex="1">
          <mxGeometry y="80" width="110" height="40" as="geometry" />
        </mxCell>
        <mxCell id="btpcVV04pxlkup-xjZqC-11" value="" style="rounded=0;whiteSpace=wrap;html=1;fillColor=#f8cecc;strokeColor=#b85450;container=0;" parent="oo_kg1gg57eCzcJUHWiD-9" vertex="1">
          <mxGeometry x="110" y="80" width="40" height="40" as="geometry" />
        </mxCell>
        <mxCell id="btpcVV04pxlkup-xjZqC-12" value="DATETIME" style="rounded=0;whiteSpace=wrap;html=1;container=0;" parent="oo_kg1gg57eCzcJUHWiD-9" vertex="1">
          <mxGeometry x="150" y="120" width="110" height="40" as="geometry" />
        </mxCell>
        <mxCell id="btpcVV04pxlkup-xjZqC-13" value="дата проведення" style="rounded=0;whiteSpace=wrap;html=1;container=0;" parent="oo_kg1gg57eCzcJUHWiD-9" vertex="1">
          <mxGeometry y="120" width="110" height="40" as="geometry" />
        </mxCell>
        <mxCell id="btpcVV04pxlkup-xjZqC-14" value="" style="rounded=0;whiteSpace=wrap;html=1;fillColor=#f8cecc;strokeColor=#b85450;container=0;" parent="oo_kg1gg57eCzcJUHWiD-9" vertex="1">
          <mxGeometry x="110" y="120" width="40" height="40" as="geometry" />
        </mxCell>
        <mxCell id="btpcVV04pxlkup-xjZqC-15" value="DATETIME" style="rounded=0;whiteSpace=wrap;html=1;container=0;" parent="oo_kg1gg57eCzcJUHWiD-9" vertex="1">
          <mxGeometry x="150" y="160" width="110" height="40" as="geometry" />
        </mxCell>
        <mxCell id="btpcVV04pxlkup-xjZqC-16" value="дата окончания" style="rounded=0;whiteSpace=wrap;html=1;container=0;" parent="oo_kg1gg57eCzcJUHWiD-9" vertex="1">
          <mxGeometry y="160" width="110" height="40" as="geometry" />
        </mxCell>
        <mxCell id="btpcVV04pxlkup-xjZqC-17" value="" style="rounded=0;whiteSpace=wrap;html=1;container=0;" parent="oo_kg1gg57eCzcJUHWiD-9" vertex="1">
          <mxGeometry x="110" y="200" width="40" height="40" as="geometry" />
        </mxCell>
        <mxCell id="btpcVV04pxlkup-xjZqC-18" value="BOOL" style="rounded=0;whiteSpace=wrap;html=1;container=0;" parent="oo_kg1gg57eCzcJUHWiD-9" vertex="1">
          <mxGeometry x="150" y="200" width="110" height="40" as="geometry" />
        </mxCell>
        <mxCell id="btpcVV04pxlkup-xjZqC-20" value="" style="rounded=0;whiteSpace=wrap;html=1;fillColor=#d5e8d4;strokeColor=#82b366;container=0;" parent="oo_kg1gg57eCzcJUHWiD-9" vertex="1">
          <mxGeometry x="110" y="200" width="40" height="40" as="geometry" />
        </mxCell>
        <mxCell id="btpcVV04pxlkup-xjZqC-26" value="" style="rounded=0;whiteSpace=wrap;html=1;fillColor=#f8cecc;strokeColor=#b85450;container=0;" parent="oo_kg1gg57eCzcJUHWiD-9" vertex="1">
          <mxGeometry x="110" y="160" width="40" height="40" as="geometry" />
        </mxCell>
        <mxCell id="btpcVV04pxlkup-xjZqC-27" value="limit участников" style="rounded=0;whiteSpace=wrap;html=1;strokeColor=default;container=0;" parent="oo_kg1gg57eCzcJUHWiD-9" vertex="1">
          <mxGeometry y="200" width="110" height="40" as="geometry" />
        </mxCell>
        <mxCell id="0sgCSy3l8JSNYPPnjqlW-1" value="INTEGER" style="rounded=0;whiteSpace=wrap;html=1;container=0;" parent="oo_kg1gg57eCzcJUHWiD-9" vertex="1">
          <mxGeometry x="150" y="240" width="110" height="40" as="geometry" />
        </mxCell>
        <mxCell id="0sgCSy3l8JSNYPPnjqlW-2" value="" style="rounded=0;whiteSpace=wrap;html=1;fillColor=#d5e8d4;strokeColor=#82b366;container=0;" parent="oo_kg1gg57eCzcJUHWiD-9" vertex="1">
          <mxGeometry x="110" y="240" width="40" height="40" as="geometry" />
        </mxCell>
        <mxCell id="0sgCSy3l8JSNYPPnjqlW-3" value="id зала" style="rounded=0;whiteSpace=wrap;html=1;strokeColor=default;container=0;fillColor=#fff2cc;" parent="oo_kg1gg57eCzcJUHWiD-9" vertex="1">
          <mxGeometry y="240" width="110" height="40" as="geometry" />
        </mxCell>
        <mxCell id="oo_kg1gg57eCzcJUHWiD-6" value="integer" style="rounded=0;whiteSpace=wrap;html=1;container=0;" parent="oo_kg1gg57eCzcJUHWiD-9" vertex="1">
          <mxGeometry x="150" y="280" width="110" height="40" as="geometry" />
        </mxCell>
        <mxCell id="oo_kg1gg57eCzcJUHWiD-7" value="" style="rounded=0;whiteSpace=wrap;html=1;fillColor=#f8cecc;strokeColor=#b85450;container=0;" parent="oo_kg1gg57eCzcJUHWiD-9" vertex="1">
          <mxGeometry x="110" y="280" width="40" height="40" as="geometry" />
        </mxCell>
        <mxCell id="oo_kg1gg57eCzcJUHWiD-8" value="время тренировки" style="rounded=0;whiteSpace=wrap;html=1;container=0;" parent="oo_kg1gg57eCzcJUHWiD-9" vertex="1">
          <mxGeometry y="280" width="110" height="40" as="geometry" />
        </mxCell>
        <mxCell id="oo_kg1gg57eCzcJUHWiD-10" value="" style="group" parent="1" vertex="1" connectable="0">
          <mxGeometry x="283" y="-200" width="261" height="130" as="geometry" />
        </mxCell>
        <mxCell id="4QoQHr9adkOKRSqkjhAx-40" value="" style="rounded=0;whiteSpace=wrap;html=1;container=0;" parent="oo_kg1gg57eCzcJUHWiD-10" vertex="1">
          <mxGeometry x="1" width="260" height="130" as="geometry" />
        </mxCell>
        <mxCell id="4QoQHr9adkOKRSqkjhAx-41" value="TYPE" style="rounded=0;whiteSpace=wrap;html=1;container=0;" parent="oo_kg1gg57eCzcJUHWiD-10" vertex="1">
          <mxGeometry x="151" width="110" height="40" as="geometry" />
        </mxCell>
        <mxCell id="4QoQHr9adkOKRSqkjhAx-42" value="пользователь&lt;br&gt;&amp;nbsp;на событии" style="rounded=0;whiteSpace=wrap;html=1;container=0;fillColor=#e1d5e7;strokeColor=#9673a6;" parent="oo_kg1gg57eCzcJUHWiD-10" vertex="1">
          <mxGeometry x="1" width="110" height="40" as="geometry" />
        </mxCell>
        <mxCell id="4QoQHr9adkOKRSqkjhAx-43" value="NULL" style="rounded=0;whiteSpace=wrap;html=1;container=0;" parent="oo_kg1gg57eCzcJUHWiD-10" vertex="1">
          <mxGeometry x="111" width="40" height="40" as="geometry" />
        </mxCell>
        <mxCell id="4QoQHr9adkOKRSqkjhAx-47" value="INTEGER" style="rounded=0;whiteSpace=wrap;html=1;container=0;" parent="oo_kg1gg57eCzcJUHWiD-10" vertex="1">
          <mxGeometry x="151" y="80" width="110" height="40" as="geometry" />
        </mxCell>
        <mxCell id="4QoQHr9adkOKRSqkjhAx-48" value="id события" style="rounded=0;whiteSpace=wrap;html=1;container=0;fillColor=#fff2cc;strokeColor=default;" parent="oo_kg1gg57eCzcJUHWiD-10" vertex="1">
          <mxGeometry x="1" y="80" width="110" height="40" as="geometry" />
        </mxCell>
        <mxCell id="4QoQHr9adkOKRSqkjhAx-49" value="" style="rounded=0;whiteSpace=wrap;html=1;fillColor=#f8cecc;strokeColor=#b85450;container=0;" parent="oo_kg1gg57eCzcJUHWiD-10" vertex="1">
          <mxGeometry x="111" y="80" width="40" height="40" as="geometry" />
        </mxCell>
        <mxCell id="4QoQHr9adkOKRSqkjhAx-50" value="INTEGER" style="rounded=0;whiteSpace=wrap;html=1;container=0;" parent="oo_kg1gg57eCzcJUHWiD-10" vertex="1">
          <mxGeometry x="150" y="40" width="110" height="40" as="geometry" />
        </mxCell>
        <mxCell id="4QoQHr9adkOKRSqkjhAx-51" value="id пользователя" style="rounded=0;whiteSpace=wrap;html=1;container=0;fillColor=#fff2cc;strokeColor=default;" parent="oo_kg1gg57eCzcJUHWiD-10" vertex="1">
          <mxGeometry y="40" width="110" height="40" as="geometry" />
        </mxCell>
        <mxCell id="4QoQHr9adkOKRSqkjhAx-52" value="" style="rounded=0;whiteSpace=wrap;html=1;fillColor=#f8cecc;strokeColor=#b85450;container=0;" parent="oo_kg1gg57eCzcJUHWiD-10" vertex="1">
          <mxGeometry x="110" y="40" width="40" height="40" as="geometry" />
        </mxCell>
        <mxCell id="oo_kg1gg57eCzcJUHWiD-11" value="" style="group" parent="1" vertex="1" connectable="0">
          <mxGeometry x="283" y="-25" width="260" height="135" as="geometry" />
        </mxCell>
        <mxCell id="4QoQHr9adkOKRSqkjhAx-18" value="" style="rounded=0;whiteSpace=wrap;html=1;container=0;" parent="oo_kg1gg57eCzcJUHWiD-11" vertex="1">
          <mxGeometry width="260" height="135" as="geometry" />
        </mxCell>
        <mxCell id="4QoQHr9adkOKRSqkjhAx-19" value="TYPE" style="rounded=0;whiteSpace=wrap;html=1;container=0;" parent="oo_kg1gg57eCzcJUHWiD-11" vertex="1">
          <mxGeometry x="150" width="110" height="40" as="geometry" />
        </mxCell>
        <mxCell id="4QoQHr9adkOKRSqkjhAx-20" value="тренер на событии" style="rounded=0;whiteSpace=wrap;html=1;container=0;fillColor=#e1d5e7;strokeColor=#9673a6;" parent="oo_kg1gg57eCzcJUHWiD-11" vertex="1">
          <mxGeometry width="110" height="40" as="geometry" />
        </mxCell>
        <mxCell id="4QoQHr9adkOKRSqkjhAx-21" value="NULL" style="rounded=0;whiteSpace=wrap;html=1;container=0;" parent="oo_kg1gg57eCzcJUHWiD-11" vertex="1">
          <mxGeometry x="110" width="40" height="40" as="geometry" />
        </mxCell>
        <mxCell id="4QoQHr9adkOKRSqkjhAx-25" value="IINTEGER" style="rounded=0;whiteSpace=wrap;html=1;container=0;" parent="oo_kg1gg57eCzcJUHWiD-11" vertex="1">
          <mxGeometry x="150" y="80" width="110" height="40" as="geometry" />
        </mxCell>
        <mxCell id="4QoQHr9adkOKRSqkjhAx-26" value="id события" style="rounded=0;whiteSpace=wrap;html=1;container=0;fillColor=#fff2cc;strokeColor=default;" parent="oo_kg1gg57eCzcJUHWiD-11" vertex="1">
          <mxGeometry y="80" width="110" height="40" as="geometry" />
        </mxCell>
        <mxCell id="4QoQHr9adkOKRSqkjhAx-27" value="" style="rounded=0;whiteSpace=wrap;html=1;fillColor=#f8cecc;strokeColor=#b85450;container=0;" parent="oo_kg1gg57eCzcJUHWiD-11" vertex="1">
          <mxGeometry x="110" y="80" width="40" height="40" as="geometry" />
        </mxCell>
        <mxCell id="4QoQHr9adkOKRSqkjhAx-28" value="INTEGER" style="rounded=0;whiteSpace=wrap;html=1;container=0;" parent="oo_kg1gg57eCzcJUHWiD-11" vertex="1">
          <mxGeometry x="150" y="40" width="110" height="40" as="geometry" />
        </mxCell>
        <mxCell id="4QoQHr9adkOKRSqkjhAx-29" value="id тренера" style="rounded=0;whiteSpace=wrap;html=1;container=0;fillColor=#fff2cc;strokeColor=default;" parent="oo_kg1gg57eCzcJUHWiD-11" vertex="1">
          <mxGeometry y="40" width="110" height="40" as="geometry" />
        </mxCell>
        <mxCell id="4QoQHr9adkOKRSqkjhAx-30" value="" style="rounded=0;whiteSpace=wrap;html=1;fillColor=#f8cecc;strokeColor=#b85450;container=0;" parent="oo_kg1gg57eCzcJUHWiD-11" vertex="1">
          <mxGeometry x="110" y="40" width="40" height="40" as="geometry" />
        </mxCell>
        <mxCell id="VwPVbOUhECPntye4XhGk-4" value="" style="group" vertex="1" connectable="0" parent="1">
          <mxGeometry x="-380" y="-20" width="260" height="290" as="geometry" />
        </mxCell>
        <mxCell id="GulFJNOfo-MHnuBH-KW7-2" value="" style="rounded=0;whiteSpace=wrap;html=1;container=0;" parent="VwPVbOUhECPntye4XhGk-4" vertex="1">
          <mxGeometry width="260" height="290" as="geometry" />
        </mxCell>
        <mxCell id="GulFJNOfo-MHnuBH-KW7-3" value="TYPE" style="rounded=0;whiteSpace=wrap;html=1;container=0;" parent="VwPVbOUhECPntye4XhGk-4" vertex="1">
          <mxGeometry x="150" width="110" height="40" as="geometry" />
        </mxCell>
        <mxCell id="GulFJNOfo-MHnuBH-KW7-4" value="транзакция" style="rounded=0;whiteSpace=wrap;html=1;container=0;fillColor=#e1d5e7;strokeColor=#9673a6;" parent="VwPVbOUhECPntye4XhGk-4" vertex="1">
          <mxGeometry width="110" height="40" as="geometry" />
        </mxCell>
        <mxCell id="GulFJNOfo-MHnuBH-KW7-5" value="NULL" style="rounded=0;whiteSpace=wrap;html=1;container=0;" parent="VwPVbOUhECPntye4XhGk-4" vertex="1">
          <mxGeometry x="110" width="40" height="40" as="geometry" />
        </mxCell>
        <mxCell id="GulFJNOfo-MHnuBH-KW7-6" value="INTEGER" style="rounded=0;whiteSpace=wrap;html=1;container=0;" parent="VwPVbOUhECPntye4XhGk-4" vertex="1">
          <mxGeometry x="150" y="40" width="110" height="40" as="geometry" />
        </mxCell>
        <mxCell id="GulFJNOfo-MHnuBH-KW7-7" value="id транзакции" style="rounded=0;whiteSpace=wrap;html=1;fillColor=#d5e8d4;strokeColor=default;container=0;" parent="VwPVbOUhECPntye4XhGk-4" vertex="1">
          <mxGeometry y="40" width="110" height="40" as="geometry" />
        </mxCell>
        <mxCell id="GulFJNOfo-MHnuBH-KW7-8" value="" style="rounded=0;whiteSpace=wrap;html=1;fillColor=#f8cecc;strokeColor=#b85450;container=0;" parent="VwPVbOUhECPntye4XhGk-4" vertex="1">
          <mxGeometry x="110" y="40" width="40" height="40" as="geometry" />
        </mxCell>
        <mxCell id="GulFJNOfo-MHnuBH-KW7-9" value="INTEGER" style="rounded=0;whiteSpace=wrap;html=1;container=0;" parent="VwPVbOUhECPntye4XhGk-4" vertex="1">
          <mxGeometry x="150" y="80" width="110" height="40" as="geometry" />
        </mxCell>
        <mxCell id="GulFJNOfo-MHnuBH-KW7-10" value="id пользователя" style="rounded=0;whiteSpace=wrap;html=1;container=0;fillColor=#fff2cc;strokeColor=default;" parent="VwPVbOUhECPntye4XhGk-4" vertex="1">
          <mxGeometry y="80" width="110" height="40" as="geometry" />
        </mxCell>
        <mxCell id="GulFJNOfo-MHnuBH-KW7-11" value="" style="rounded=0;whiteSpace=wrap;html=1;fillColor=#f8cecc;strokeColor=#b85450;container=0;" parent="VwPVbOUhECPntye4XhGk-4" vertex="1">
          <mxGeometry x="110" y="80" width="40" height="40" as="geometry" />
        </mxCell>
        <mxCell id="GulFJNOfo-MHnuBH-KW7-12" value="INTEGER" style="rounded=0;whiteSpace=wrap;html=1;container=0;" parent="VwPVbOUhECPntye4XhGk-4" vertex="1">
          <mxGeometry x="150" y="120" width="110" height="40" as="geometry" />
        </mxCell>
        <mxCell id="GulFJNOfo-MHnuBH-KW7-13" value="id автомата" style="rounded=0;whiteSpace=wrap;html=1;container=0;fillColor=#fff2cc;strokeColor=default;" parent="VwPVbOUhECPntye4XhGk-4" vertex="1">
          <mxGeometry y="120" width="110" height="40" as="geometry" />
        </mxCell>
        <mxCell id="GulFJNOfo-MHnuBH-KW7-14" value="" style="rounded=0;whiteSpace=wrap;html=1;fillColor=#f8cecc;strokeColor=#b85450;container=0;" parent="VwPVbOUhECPntye4XhGk-4" vertex="1">
          <mxGeometry x="110" y="120" width="40" height="40" as="geometry" />
        </mxCell>
        <mxCell id="7J8eAsta4Q3tU_Jbkilz-1" value="INTEGER" style="rounded=0;whiteSpace=wrap;html=1;container=0;" parent="VwPVbOUhECPntye4XhGk-4" vertex="1">
          <mxGeometry x="150" y="160" width="110" height="40" as="geometry" />
        </mxCell>
        <mxCell id="7J8eAsta4Q3tU_Jbkilz-2" value="цена" style="rounded=0;whiteSpace=wrap;html=1;container=0;" parent="VwPVbOUhECPntye4XhGk-4" vertex="1">
          <mxGeometry y="160" width="110" height="40" as="geometry" />
        </mxCell>
        <mxCell id="7J8eAsta4Q3tU_Jbkilz-3" value="" style="rounded=0;whiteSpace=wrap;html=1;fillColor=#f8cecc;strokeColor=#b85450;container=0;" parent="VwPVbOUhECPntye4XhGk-4" vertex="1">
          <mxGeometry x="110" y="160" width="40" height="40" as="geometry" />
        </mxCell>
        <mxCell id="7J8eAsta4Q3tU_Jbkilz-4" value="DATETIME" style="rounded=0;whiteSpace=wrap;html=1;container=0;" parent="VwPVbOUhECPntye4XhGk-4" vertex="1">
          <mxGeometry x="150" y="200" width="110" height="40" as="geometry" />
        </mxCell>
        <mxCell id="7J8eAsta4Q3tU_Jbkilz-5" value="дата транзакции" style="rounded=0;whiteSpace=wrap;html=1;container=0;" parent="VwPVbOUhECPntye4XhGk-4" vertex="1">
          <mxGeometry y="200" width="110" height="40" as="geometry" />
        </mxCell>
        <mxCell id="7J8eAsta4Q3tU_Jbkilz-6" value="" style="rounded=0;whiteSpace=wrap;html=1;fillColor=#f8cecc;strokeColor=#b85450;container=0;" parent="VwPVbOUhECPntye4XhGk-4" vertex="1">
          <mxGeometry x="110" y="200" width="40" height="40" as="geometry" />
        </mxCell>
        <mxCell id="VwPVbOUhECPntye4XhGk-1" value="INTEGER" style="rounded=0;whiteSpace=wrap;html=1;container=0;" vertex="1" parent="VwPVbOUhECPntye4XhGk-4">
          <mxGeometry x="150" y="240" width="110" height="40" as="geometry" />
        </mxCell>
        <mxCell id="VwPVbOUhECPntye4XhGk-2" value="id товара" style="rounded=0;whiteSpace=wrap;html=1;container=0;fillColor=#fff2cc;strokeColor=default;" vertex="1" parent="VwPVbOUhECPntye4XhGk-4">
          <mxGeometry y="240" width="110" height="40" as="geometry" />
        </mxCell>
        <mxCell id="VwPVbOUhECPntye4XhGk-3" value="" style="rounded=0;whiteSpace=wrap;html=1;fillColor=#f8cecc;strokeColor=#b85450;container=0;" vertex="1" parent="VwPVbOUhECPntye4XhGk-4">
          <mxGeometry x="110" y="240" width="40" height="40" as="geometry" />
        </mxCell>
        <mxCell id="VwPVbOUhECPntye4XhGk-5" style="edgeStyle=orthogonalEdgeStyle;rounded=1;orthogonalLoop=1;jettySize=auto;html=1;exitX=0;exitY=0.5;exitDx=0;exitDy=0;entryX=0;entryY=0.5;entryDx=0;entryDy=0;" edge="1" parent="1" source="VwPVbOUhECPntye4XhGk-2" target="SY3xnQZ9ESmQ8LTkHdD1-7">
          <mxGeometry relative="1" as="geometry">
            <Array as="points">
              <mxPoint x="-420" y="240" />
              <mxPoint x="-420" y="790" />
            </Array>
          </mxGeometry>
        </mxCell>
      </root>
    </mxGraphModel>
  </diagram>
  <diagram name="er-model" id="ofqtAaAM_KHj8UNCjQuX">
    <mxGraphModel dx="1749" dy="2283" grid="1" gridSize="10" guides="1" tooltips="1" connect="1" arrows="1" fold="1" page="1" pageScale="1" pageWidth="827" pageHeight="1169" math="0" shadow="0">
      <root>
        <mxCell id="0" />
        <mxCell id="1" parent="0" />
        <mxCell id="AVvm1oC02pIIjGHIF5MC-21" style="edgeStyle=orthogonalEdgeStyle;rounded=0;orthogonalLoop=1;jettySize=auto;html=1;exitX=0.25;exitY=0;exitDx=0;exitDy=0;entryX=0;entryY=0.5;entryDx=0;entryDy=0;" parent="1" target="QMrgS0bzPgjpqa6_LQRn-186" edge="1">
          <mxGeometry relative="1" as="geometry">
            <mxPoint x="-190" y="1085" as="targetPoint" />
            <Array as="points">
              <mxPoint x="245" y="210" />
              <mxPoint x="220" y="210" />
              <mxPoint x="220" y="-60" />
              <mxPoint x="-320" y="-60" />
              <mxPoint x="-320" y="1073" />
            </Array>
            <mxPoint x="245" y="230" as="sourcePoint" />
          </mxGeometry>
        </mxCell>
        <mxCell id="ty1mSF8mT6p5wosl8zxA-15" style="edgeStyle=orthogonalEdgeStyle;shape=connector;rounded=1;orthogonalLoop=1;jettySize=auto;html=1;entryX=0;entryY=0.5;entryDx=0;entryDy=0;labelBackgroundColor=default;align=center;verticalAlign=middle;fontFamily=Helvetica;fontSize=11;fontColor=default;endArrow=none;endFill=0;" parent="1" source="QMrgS0bzPgjpqa6_LQRn-20" target="QMrgS0bzPgjpqa6_LQRn-21" edge="1">
          <mxGeometry relative="1" as="geometry" />
        </mxCell>
        <mxCell id="ty1mSF8mT6p5wosl8zxA-16" style="edgeStyle=orthogonalEdgeStyle;shape=connector;rounded=1;orthogonalLoop=1;jettySize=auto;html=1;entryX=0;entryY=0.5;entryDx=0;entryDy=0;labelBackgroundColor=default;align=center;verticalAlign=middle;fontFamily=Helvetica;fontSize=11;fontColor=default;endArrow=none;endFill=0;" parent="1" source="QMrgS0bzPgjpqa6_LQRn-20" target="QMrgS0bzPgjpqa6_LQRn-23" edge="1">
          <mxGeometry relative="1" as="geometry" />
        </mxCell>
        <mxCell id="ty1mSF8mT6p5wosl8zxA-17" style="edgeStyle=orthogonalEdgeStyle;shape=connector;rounded=1;orthogonalLoop=1;jettySize=auto;html=1;entryX=0;entryY=0.5;entryDx=0;entryDy=0;labelBackgroundColor=default;align=center;verticalAlign=middle;fontFamily=Helvetica;fontSize=11;fontColor=default;endArrow=none;endFill=0;" parent="1" source="QMrgS0bzPgjpqa6_LQRn-20" target="QMrgS0bzPgjpqa6_LQRn-22" edge="1">
          <mxGeometry relative="1" as="geometry" />
        </mxCell>
        <mxCell id="mF1oYlHzrJLk_IWJBXNM-7" style="edgeStyle=orthogonalEdgeStyle;rounded=1;orthogonalLoop=1;jettySize=auto;html=1;entryX=0;entryY=0.5;entryDx=0;entryDy=0;strokeColor=none;" parent="1" source="QMrgS0bzPgjpqa6_LQRn-20" target="mF1oYlHzrJLk_IWJBXNM-3" edge="1">
          <mxGeometry relative="1" as="geometry" />
        </mxCell>
        <mxCell id="mF1oYlHzrJLk_IWJBXNM-8" style="edgeStyle=orthogonalEdgeStyle;rounded=1;orthogonalLoop=1;jettySize=auto;html=1;entryX=0;entryY=0.5;entryDx=0;entryDy=0;endArrow=none;endFill=0;" parent="1" source="QMrgS0bzPgjpqa6_LQRn-20" target="mF1oYlHzrJLk_IWJBXNM-3" edge="1">
          <mxGeometry relative="1" as="geometry" />
        </mxCell>
        <mxCell id="mF1oYlHzrJLk_IWJBXNM-9" style="edgeStyle=orthogonalEdgeStyle;shape=connector;rounded=1;orthogonalLoop=1;jettySize=auto;html=1;entryX=0;entryY=0.5;entryDx=0;entryDy=0;labelBackgroundColor=default;strokeColor=default;align=center;verticalAlign=middle;fontFamily=Helvetica;fontSize=11;fontColor=default;endArrow=none;endFill=0;" parent="1" source="QMrgS0bzPgjpqa6_LQRn-20" target="mF1oYlHzrJLk_IWJBXNM-4" edge="1">
          <mxGeometry relative="1" as="geometry" />
        </mxCell>
        <mxCell id="ecRRgR5sFcf0vYtLlD-W-31" style="edgeStyle=orthogonalEdgeStyle;rounded=0;orthogonalLoop=1;jettySize=auto;html=1;entryX=0.5;entryY=1;entryDx=0;entryDy=0;" parent="1" source="QMrgS0bzPgjpqa6_LQRn-20" target="ecRRgR5sFcf0vYtLlD-W-28" edge="1">
          <mxGeometry relative="1" as="geometry">
            <mxPoint x="820" y="-80" as="targetPoint" />
            <Array as="points">
              <mxPoint x="690" y="-40" />
              <mxPoint x="825" y="-40" />
            </Array>
          </mxGeometry>
        </mxCell>
        <mxCell id="NtqH5lBvlZa2lV2GpoU6-2" style="edgeStyle=orthogonalEdgeStyle;rounded=1;orthogonalLoop=1;jettySize=auto;html=1;entryX=0;entryY=0.5;entryDx=0;entryDy=0;endArrow=none;endFill=0;" parent="1" source="QMrgS0bzPgjpqa6_LQRn-20" target="NtqH5lBvlZa2lV2GpoU6-1" edge="1">
          <mxGeometry relative="1" as="geometry" />
        </mxCell>
        <mxCell id="NPhOUV8jgAZbTIDMCQ0Y-1" style="edgeStyle=orthogonalEdgeStyle;rounded=0;orthogonalLoop=1;jettySize=auto;html=1;" edge="1" parent="1" source="QMrgS0bzPgjpqa6_LQRn-20">
          <mxGeometry relative="1" as="geometry">
            <mxPoint x="350" y="240" as="targetPoint" />
            <Array as="points">
              <mxPoint x="670" y="490" />
              <mxPoint x="350" y="490" />
            </Array>
          </mxGeometry>
        </mxCell>
        <mxCell id="QMrgS0bzPgjpqa6_LQRn-20" value="Клуб" style="rounded=0;whiteSpace=wrap;html=1;" parent="1" vertex="1">
          <mxGeometry x="640" y="155" width="100" height="45" as="geometry" />
        </mxCell>
        <mxCell id="QMrgS0bzPgjpqa6_LQRn-21" value="id" style="ellipse;whiteSpace=wrap;html=1;fillColor=#d5e8d4;strokeColor=#82b366;" parent="1" vertex="1">
          <mxGeometry x="790" y="18" width="100" height="50" as="geometry" />
        </mxCell>
        <mxCell id="QMrgS0bzPgjpqa6_LQRn-22" value="photo" style="ellipse;whiteSpace=wrap;html=1;" parent="1" vertex="1">
          <mxGeometry x="790" y="90" width="100" height="50" as="geometry" />
        </mxCell>
        <mxCell id="QMrgS0bzPgjpqa6_LQRn-23" value="name" style="ellipse;whiteSpace=wrap;html=1;" parent="1" vertex="1">
          <mxGeometry x="790" y="160" width="100" height="50" as="geometry" />
        </mxCell>
        <mxCell id="mF1oYlHzrJLk_IWJBXNM-3" value="description" style="ellipse;whiteSpace=wrap;html=1;" parent="1" vertex="1">
          <mxGeometry x="790" y="225" width="100" height="50" as="geometry" />
        </mxCell>
        <mxCell id="mF1oYlHzrJLk_IWJBXNM-4" value="country_id" style="ellipse;whiteSpace=wrap;html=1;fillColor=#dae8fc;strokeColor=#6c8ebf;" parent="1" vertex="1">
          <mxGeometry x="790" y="290" width="100" height="50" as="geometry" />
        </mxCell>
        <mxCell id="ecRRgR5sFcf0vYtLlD-W-11" style="edgeStyle=orthogonalEdgeStyle;orthogonalLoop=1;jettySize=auto;html=1;entryX=1;entryY=0.5;entryDx=0;entryDy=0;rounded=1;endArrow=none;endFill=0;" parent="1" source="ecRRgR5sFcf0vYtLlD-W-15" target="ecRRgR5sFcf0vYtLlD-W-16" edge="1">
          <mxGeometry relative="1" as="geometry" />
        </mxCell>
        <mxCell id="ecRRgR5sFcf0vYtLlD-W-12" style="edgeStyle=orthogonalEdgeStyle;shape=connector;rounded=1;orthogonalLoop=1;jettySize=auto;html=1;entryX=1;entryY=0.5;entryDx=0;entryDy=0;labelBackgroundColor=default;align=center;verticalAlign=middle;fontFamily=Helvetica;fontSize=11;fontColor=default;endArrow=none;endFill=0;" parent="1" source="ecRRgR5sFcf0vYtLlD-W-15" target="ecRRgR5sFcf0vYtLlD-W-20" edge="1">
          <mxGeometry relative="1" as="geometry" />
        </mxCell>
        <mxCell id="ecRRgR5sFcf0vYtLlD-W-15" value="Страна" style="rounded=0;whiteSpace=wrap;html=1;" parent="1" vertex="1">
          <mxGeometry x="600.5" y="-250" width="100" height="45" as="geometry" />
        </mxCell>
        <mxCell id="ecRRgR5sFcf0vYtLlD-W-16" value="id зала" style="ellipse;whiteSpace=wrap;html=1;fillColor=#d5e8d4;strokeColor=#82b366;" parent="1" vertex="1">
          <mxGeometry x="405" y="-560" width="100" height="50" as="geometry" />
        </mxCell>
        <mxCell id="ecRRgR5sFcf0vYtLlD-W-20" value="name" style="ellipse;whiteSpace=wrap;html=1;" parent="1" vertex="1">
          <mxGeometry x="405" y="-500" width="100" height="50" as="geometry" />
        </mxCell>
        <mxCell id="ecRRgR5sFcf0vYtLlD-W-32" style="edgeStyle=orthogonalEdgeStyle;rounded=0;orthogonalLoop=1;jettySize=auto;html=1;exitX=0.5;exitY=0;exitDx=0;exitDy=0;entryX=1;entryY=0.5;entryDx=0;entryDy=0;" parent="1" source="ecRRgR5sFcf0vYtLlD-W-28" target="ecRRgR5sFcf0vYtLlD-W-15" edge="1">
          <mxGeometry relative="1" as="geometry" />
        </mxCell>
        <mxCell id="ecRRgR5sFcf0vYtLlD-W-28" value="связан" style="rhombus;whiteSpace=wrap;html=1;" parent="1" vertex="1">
          <mxGeometry x="785" y="-162.5" width="80" height="80" as="geometry" />
        </mxCell>
        <mxCell id="ecRRgR5sFcf0vYtLlD-W-29" value="1" style="text;html=1;align=center;verticalAlign=middle;resizable=0;points=[];autosize=1;strokeColor=none;fillColor=none;" parent="1" vertex="1">
          <mxGeometry x="780" y="-167.5" width="30" height="30" as="geometry" />
        </mxCell>
        <mxCell id="ecRRgR5sFcf0vYtLlD-W-30" value="n" style="text;html=1;align=center;verticalAlign=middle;resizable=0;points=[];autosize=1;strokeColor=none;fillColor=none;" parent="1" vertex="1">
          <mxGeometry x="835" y="-167.5" width="30" height="30" as="geometry" />
        </mxCell>
        <mxCell id="NtqH5lBvlZa2lV2GpoU6-1" value="coach_id" style="ellipse;whiteSpace=wrap;html=1;fillColor=#dae8fc;strokeColor=#6c8ebf;" parent="1" vertex="1">
          <mxGeometry x="790" y="350" width="100" height="50" as="geometry" />
        </mxCell>
        <mxCell id="-sibmpIAqM8bml-3l8sU-6" style="edgeStyle=orthogonalEdgeStyle;rounded=0;orthogonalLoop=1;jettySize=auto;html=1;exitX=0.5;exitY=0;exitDx=0;exitDy=0;entryX=0.75;entryY=0;entryDx=0;entryDy=0;" parent="1" source="-sibmpIAqM8bml-3l8sU-2" target="ecRRgR5sFcf0vYtLlD-W-15" edge="1">
          <mxGeometry relative="1" as="geometry" />
        </mxCell>
        <mxCell id="-sibmpIAqM8bml-3l8sU-2" value="связан" style="rhombus;whiteSpace=wrap;html=1;" parent="1" vertex="1">
          <mxGeometry x="1087.5" y="-275" width="80" height="80" as="geometry" />
        </mxCell>
        <mxCell id="-sibmpIAqM8bml-3l8sU-3" value="1" style="text;html=1;align=center;verticalAlign=middle;resizable=0;points=[];autosize=1;strokeColor=none;fillColor=none;" parent="1" vertex="1">
          <mxGeometry x="1082.5" y="-280" width="30" height="30" as="geometry" />
        </mxCell>
        <mxCell id="-sibmpIAqM8bml-3l8sU-4" value="n" style="text;html=1;align=center;verticalAlign=middle;resizable=0;points=[];autosize=1;strokeColor=none;fillColor=none;" parent="1" vertex="1">
          <mxGeometry x="1137.5" y="-280" width="30" height="30" as="geometry" />
        </mxCell>
        <mxCell id="NPhOUV8jgAZbTIDMCQ0Y-40" style="edgeStyle=orthogonalEdgeStyle;rounded=0;orthogonalLoop=1;jettySize=auto;html=1;entryX=0;entryY=0.5;entryDx=0;entryDy=0;" edge="1" parent="1" source="NPhOUV8jgAZbTIDMCQ0Y-2" target="NPhOUV8jgAZbTIDMCQ0Y-26">
          <mxGeometry relative="1" as="geometry" />
        </mxCell>
        <mxCell id="NPhOUV8jgAZbTIDMCQ0Y-2" value="связан" style="rhombus;whiteSpace=wrap;html=1;" vertex="1" parent="1">
          <mxGeometry x="310" y="160" width="80" height="80" as="geometry" />
        </mxCell>
        <mxCell id="NPhOUV8jgAZbTIDMCQ0Y-3" value="1" style="text;html=1;align=center;verticalAlign=middle;resizable=0;points=[];autosize=1;strokeColor=none;fillColor=none;" vertex="1" parent="1">
          <mxGeometry x="300" y="152" width="30" height="30" as="geometry" />
        </mxCell>
        <mxCell id="NPhOUV8jgAZbTIDMCQ0Y-4" value="1" style="text;html=1;align=center;verticalAlign=middle;resizable=0;points=[];autosize=1;strokeColor=none;fillColor=none;" vertex="1" parent="1">
          <mxGeometry x="370" y="152" width="30" height="30" as="geometry" />
        </mxCell>
        <mxCell id="NPhOUV8jgAZbTIDMCQ0Y-41" style="edgeStyle=orthogonalEdgeStyle;rounded=0;orthogonalLoop=1;jettySize=auto;html=1;" edge="1" parent="1" source="NPhOUV8jgAZbTIDMCQ0Y-26">
          <mxGeometry relative="1" as="geometry">
            <mxPoint x="370" y="-230" as="targetPoint" />
          </mxGeometry>
        </mxCell>
        <mxCell id="NPhOUV8jgAZbTIDMCQ0Y-26" value="Тренер" style="rounded=0;whiteSpace=wrap;html=1;" vertex="1" parent="1">
          <mxGeometry x="310" y="-60" width="120" height="60" as="geometry" />
        </mxCell>
        <mxCell id="NPhOUV8jgAZbTIDMCQ0Y-27" style="edgeStyle=orthogonalEdgeStyle;shape=connector;rounded=1;orthogonalLoop=1;jettySize=auto;html=1;entryX=0;entryY=0.5;entryDx=0;entryDy=0;labelBackgroundColor=default;align=center;verticalAlign=middle;fontFamily=Helvetica;fontSize=11;fontColor=default;endArrow=none;endFill=0;" edge="1" parent="1" target="NPhOUV8jgAZbTIDMCQ0Y-34">
          <mxGeometry relative="1" as="geometry">
            <mxPoint x="430" y="-20" as="sourcePoint" />
          </mxGeometry>
        </mxCell>
        <mxCell id="NPhOUV8jgAZbTIDMCQ0Y-28" style="edgeStyle=orthogonalEdgeStyle;shape=connector;rounded=1;orthogonalLoop=1;jettySize=auto;html=1;entryX=0;entryY=0.5;entryDx=0;entryDy=0;labelBackgroundColor=default;align=center;verticalAlign=middle;fontFamily=Helvetica;fontSize=11;fontColor=default;endArrow=none;endFill=0;" edge="1" parent="1" target="NPhOUV8jgAZbTIDMCQ0Y-36">
          <mxGeometry relative="1" as="geometry">
            <mxPoint x="430" y="-20" as="sourcePoint" />
          </mxGeometry>
        </mxCell>
        <mxCell id="NPhOUV8jgAZbTIDMCQ0Y-29" style="edgeStyle=orthogonalEdgeStyle;shape=connector;rounded=1;orthogonalLoop=1;jettySize=auto;html=1;entryX=0;entryY=0.5;entryDx=0;entryDy=0;labelBackgroundColor=default;align=center;verticalAlign=middle;fontFamily=Helvetica;fontSize=11;fontColor=default;endArrow=none;endFill=0;" edge="1" parent="1" target="NPhOUV8jgAZbTIDMCQ0Y-35">
          <mxGeometry relative="1" as="geometry">
            <mxPoint x="430" y="-20" as="sourcePoint" />
          </mxGeometry>
        </mxCell>
        <mxCell id="NPhOUV8jgAZbTIDMCQ0Y-30" style="edgeStyle=orthogonalEdgeStyle;rounded=1;orthogonalLoop=1;jettySize=auto;html=1;entryX=0;entryY=0.5;entryDx=0;entryDy=0;strokeColor=none;" edge="1" parent="1" target="NPhOUV8jgAZbTIDMCQ0Y-37">
          <mxGeometry relative="1" as="geometry">
            <mxPoint x="430" y="-20" as="sourcePoint" />
          </mxGeometry>
        </mxCell>
        <mxCell id="NPhOUV8jgAZbTIDMCQ0Y-31" style="edgeStyle=orthogonalEdgeStyle;rounded=1;orthogonalLoop=1;jettySize=auto;html=1;entryX=0;entryY=0.5;entryDx=0;entryDy=0;endArrow=none;endFill=0;" edge="1" parent="1" target="NPhOUV8jgAZbTIDMCQ0Y-37">
          <mxGeometry relative="1" as="geometry">
            <mxPoint x="430" y="-20" as="sourcePoint" />
          </mxGeometry>
        </mxCell>
        <mxCell id="NPhOUV8jgAZbTIDMCQ0Y-32" style="edgeStyle=orthogonalEdgeStyle;shape=connector;rounded=1;orthogonalLoop=1;jettySize=auto;html=1;entryX=0;entryY=0.5;entryDx=0;entryDy=0;labelBackgroundColor=default;strokeColor=default;align=center;verticalAlign=middle;fontFamily=Helvetica;fontSize=11;fontColor=default;endArrow=none;endFill=0;" edge="1" parent="1" target="NPhOUV8jgAZbTIDMCQ0Y-38">
          <mxGeometry relative="1" as="geometry">
            <mxPoint x="430" y="-20" as="sourcePoint" />
          </mxGeometry>
        </mxCell>
        <mxCell id="NPhOUV8jgAZbTIDMCQ0Y-33" style="edgeStyle=orthogonalEdgeStyle;rounded=1;orthogonalLoop=1;jettySize=auto;html=1;entryX=0;entryY=0.5;entryDx=0;entryDy=0;endArrow=none;endFill=0;" edge="1" parent="1" target="NPhOUV8jgAZbTIDMCQ0Y-39">
          <mxGeometry relative="1" as="geometry">
            <mxPoint x="430" y="-20" as="sourcePoint" />
          </mxGeometry>
        </mxCell>
        <mxCell id="NPhOUV8jgAZbTIDMCQ0Y-34" value="id" style="ellipse;whiteSpace=wrap;html=1;fillColor=#d5e8d4;strokeColor=#82b366;" vertex="1" parent="1">
          <mxGeometry x="480" y="-180" width="100" height="50" as="geometry" />
        </mxCell>
        <mxCell id="NPhOUV8jgAZbTIDMCQ0Y-35" value="photo" style="ellipse;whiteSpace=wrap;html=1;" vertex="1" parent="1">
          <mxGeometry x="480" y="-108" width="100" height="50" as="geometry" />
        </mxCell>
        <mxCell id="NPhOUV8jgAZbTIDMCQ0Y-36" value="surname" style="ellipse;whiteSpace=wrap;html=1;" vertex="1" parent="1">
          <mxGeometry x="480" y="-38" width="100" height="50" as="geometry" />
        </mxCell>
        <mxCell id="NPhOUV8jgAZbTIDMCQ0Y-37" value="name" style="ellipse;whiteSpace=wrap;html=1;" vertex="1" parent="1">
          <mxGeometry x="480" y="27" width="100" height="50" as="geometry" />
        </mxCell>
        <mxCell id="NPhOUV8jgAZbTIDMCQ0Y-38" value="middle_name" style="ellipse;whiteSpace=wrap;html=1;" vertex="1" parent="1">
          <mxGeometry x="480" y="92" width="100" height="50" as="geometry" />
        </mxCell>
        <mxCell id="NPhOUV8jgAZbTIDMCQ0Y-39" value="country_id" style="ellipse;whiteSpace=wrap;html=1;fillColor=#dae8fc;strokeColor=#6c8ebf;" vertex="1" parent="1">
          <mxGeometry x="480" y="152" width="100" height="50" as="geometry" />
        </mxCell>
        <mxCell id="NPhOUV8jgAZbTIDMCQ0Y-45" style="edgeStyle=orthogonalEdgeStyle;rounded=0;orthogonalLoop=1;jettySize=auto;html=1;entryX=0.5;entryY=0;entryDx=0;entryDy=0;" edge="1" parent="1" source="NPhOUV8jgAZbTIDMCQ0Y-42" target="ecRRgR5sFcf0vYtLlD-W-15">
          <mxGeometry relative="1" as="geometry" />
        </mxCell>
        <mxCell id="NPhOUV8jgAZbTIDMCQ0Y-42" value="связан" style="rhombus;whiteSpace=wrap;html=1;" vertex="1" parent="1">
          <mxGeometry x="330" y="-310.5" width="80" height="80" as="geometry" />
        </mxCell>
        <mxCell id="NPhOUV8jgAZbTIDMCQ0Y-43" value="1" style="text;html=1;align=center;verticalAlign=middle;resizable=0;points=[];autosize=1;strokeColor=none;fillColor=none;" vertex="1" parent="1">
          <mxGeometry x="320" y="-320" width="30" height="30" as="geometry" />
        </mxCell>
        <mxCell id="NPhOUV8jgAZbTIDMCQ0Y-44" value="n" style="text;html=1;align=center;verticalAlign=middle;resizable=0;points=[];autosize=1;strokeColor=none;fillColor=none;" vertex="1" parent="1">
          <mxGeometry x="390" y="-320" width="30" height="30" as="geometry" />
        </mxCell>
        <mxCell id="NPhOUV8jgAZbTIDMCQ0Y-60" style="edgeStyle=orthogonalEdgeStyle;shape=connector;rounded=1;orthogonalLoop=1;jettySize=auto;html=1;entryX=0;entryY=0.5;entryDx=0;entryDy=0;labelBackgroundColor=default;align=center;verticalAlign=middle;fontFamily=Helvetica;fontSize=11;fontColor=default;endArrow=none;endFill=0;" edge="1" parent="1" target="NPhOUV8jgAZbTIDMCQ0Y-67">
          <mxGeometry relative="1" as="geometry">
            <mxPoint x="1167.5" y="267" as="sourcePoint" />
          </mxGeometry>
        </mxCell>
        <mxCell id="NPhOUV8jgAZbTIDMCQ0Y-61" style="edgeStyle=orthogonalEdgeStyle;shape=connector;rounded=1;orthogonalLoop=1;jettySize=auto;html=1;entryX=0;entryY=0.5;entryDx=0;entryDy=0;labelBackgroundColor=default;align=center;verticalAlign=middle;fontFamily=Helvetica;fontSize=11;fontColor=default;endArrow=none;endFill=0;" edge="1" parent="1" target="NPhOUV8jgAZbTIDMCQ0Y-69">
          <mxGeometry relative="1" as="geometry">
            <mxPoint x="1167.5" y="267" as="sourcePoint" />
          </mxGeometry>
        </mxCell>
        <mxCell id="NPhOUV8jgAZbTIDMCQ0Y-62" style="edgeStyle=orthogonalEdgeStyle;shape=connector;rounded=1;orthogonalLoop=1;jettySize=auto;html=1;entryX=0;entryY=0.5;entryDx=0;entryDy=0;labelBackgroundColor=default;align=center;verticalAlign=middle;fontFamily=Helvetica;fontSize=11;fontColor=default;endArrow=none;endFill=0;" edge="1" parent="1" target="NPhOUV8jgAZbTIDMCQ0Y-68">
          <mxGeometry relative="1" as="geometry">
            <mxPoint x="1167.5" y="267" as="sourcePoint" />
          </mxGeometry>
        </mxCell>
        <mxCell id="NPhOUV8jgAZbTIDMCQ0Y-63" style="edgeStyle=orthogonalEdgeStyle;rounded=1;orthogonalLoop=1;jettySize=auto;html=1;entryX=0;entryY=0.5;entryDx=0;entryDy=0;strokeColor=none;" edge="1" parent="1" target="NPhOUV8jgAZbTIDMCQ0Y-70">
          <mxGeometry relative="1" as="geometry">
            <mxPoint x="1167.5" y="267" as="sourcePoint" />
          </mxGeometry>
        </mxCell>
        <mxCell id="NPhOUV8jgAZbTIDMCQ0Y-64" style="edgeStyle=orthogonalEdgeStyle;rounded=1;orthogonalLoop=1;jettySize=auto;html=1;entryX=0;entryY=0.5;entryDx=0;entryDy=0;endArrow=none;endFill=0;" edge="1" parent="1" target="NPhOUV8jgAZbTIDMCQ0Y-70">
          <mxGeometry relative="1" as="geometry">
            <mxPoint x="1167.5" y="267" as="sourcePoint" />
          </mxGeometry>
        </mxCell>
        <mxCell id="NPhOUV8jgAZbTIDMCQ0Y-65" style="edgeStyle=orthogonalEdgeStyle;shape=connector;rounded=1;orthogonalLoop=1;jettySize=auto;html=1;entryX=0;entryY=0.5;entryDx=0;entryDy=0;labelBackgroundColor=default;strokeColor=default;align=center;verticalAlign=middle;fontFamily=Helvetica;fontSize=11;fontColor=default;endArrow=none;endFill=0;" edge="1" parent="1" target="NPhOUV8jgAZbTIDMCQ0Y-71">
          <mxGeometry relative="1" as="geometry">
            <mxPoint x="1167.5" y="267" as="sourcePoint" />
          </mxGeometry>
        </mxCell>
        <mxCell id="NPhOUV8jgAZbTIDMCQ0Y-66" style="edgeStyle=orthogonalEdgeStyle;rounded=1;orthogonalLoop=1;jettySize=auto;html=1;entryX=0;entryY=0.5;entryDx=0;entryDy=0;endArrow=none;endFill=0;" edge="1" parent="1" target="NPhOUV8jgAZbTIDMCQ0Y-72">
          <mxGeometry relative="1" as="geometry">
            <mxPoint x="1167.5" y="267" as="sourcePoint" />
          </mxGeometry>
        </mxCell>
        <mxCell id="NPhOUV8jgAZbTIDMCQ0Y-67" value="id" style="ellipse;whiteSpace=wrap;html=1;fillColor=#d5e8d4;strokeColor=#82b366;" vertex="1" parent="1">
          <mxGeometry x="1217.5" y="108" width="100" height="50" as="geometry" />
        </mxCell>
        <mxCell id="NPhOUV8jgAZbTIDMCQ0Y-68" value="photo" style="ellipse;whiteSpace=wrap;html=1;" vertex="1" parent="1">
          <mxGeometry x="1217.5" y="180" width="100" height="50" as="geometry" />
        </mxCell>
        <mxCell id="NPhOUV8jgAZbTIDMCQ0Y-69" value="surname" style="ellipse;whiteSpace=wrap;html=1;" vertex="1" parent="1">
          <mxGeometry x="1217.5" y="250" width="100" height="50" as="geometry" />
        </mxCell>
        <mxCell id="NPhOUV8jgAZbTIDMCQ0Y-70" value="name" style="ellipse;whiteSpace=wrap;html=1;" vertex="1" parent="1">
          <mxGeometry x="1217.5" y="315" width="100" height="50" as="geometry" />
        </mxCell>
        <mxCell id="NPhOUV8jgAZbTIDMCQ0Y-71" value="middle_name" style="ellipse;whiteSpace=wrap;html=1;" vertex="1" parent="1">
          <mxGeometry x="1217.5" y="380" width="100" height="50" as="geometry" />
        </mxCell>
        <mxCell id="NPhOUV8jgAZbTIDMCQ0Y-72" value="country_of_birth_id" style="ellipse;whiteSpace=wrap;html=1;fillColor=#dae8fc;strokeColor=#6c8ebf;" vertex="1" parent="1">
          <mxGeometry x="1217.5" y="440" width="100" height="50" as="geometry" />
        </mxCell>
        <mxCell id="NPhOUV8jgAZbTIDMCQ0Y-79" style="edgeStyle=orthogonalEdgeStyle;rounded=0;orthogonalLoop=1;jettySize=auto;html=1;entryX=0.5;entryY=1;entryDx=0;entryDy=0;" edge="1" parent="1" source="NPhOUV8jgAZbTIDMCQ0Y-73" target="-sibmpIAqM8bml-3l8sU-2">
          <mxGeometry relative="1" as="geometry">
            <mxPoint x="1130" y="-190" as="targetPoint" />
          </mxGeometry>
        </mxCell>
        <mxCell id="NPhOUV8jgAZbTIDMCQ0Y-80" style="edgeStyle=orthogonalEdgeStyle;rounded=0;orthogonalLoop=1;jettySize=auto;html=1;" edge="1" parent="1" source="NPhOUV8jgAZbTIDMCQ0Y-73" target="NPhOUV8jgAZbTIDMCQ0Y-81">
          <mxGeometry relative="1" as="geometry">
            <mxPoint x="980" y="530" as="targetPoint" />
          </mxGeometry>
        </mxCell>
        <mxCell id="NPhOUV8jgAZbTIDMCQ0Y-73" value="Игрок" style="rounded=0;whiteSpace=wrap;html=1;" vertex="1" parent="1">
          <mxGeometry x="1047.5" y="240" width="120" height="60" as="geometry" />
        </mxCell>
        <mxCell id="NPhOUV8jgAZbTIDMCQ0Y-75" style="edgeStyle=orthogonalEdgeStyle;rounded=1;orthogonalLoop=1;jettySize=auto;html=1;endArrow=none;endFill=0;entryX=0;entryY=0.5;entryDx=0;entryDy=0;" edge="1" parent="1" target="NPhOUV8jgAZbTIDMCQ0Y-76">
          <mxGeometry relative="1" as="geometry">
            <mxPoint x="1167.5" y="270" as="sourcePoint" />
            <mxPoint x="1210" y="560" as="targetPoint" />
          </mxGeometry>
        </mxCell>
        <mxCell id="NPhOUV8jgAZbTIDMCQ0Y-76" value="number" style="ellipse;whiteSpace=wrap;html=1;" vertex="1" parent="1">
          <mxGeometry x="1217.5" y="500" width="100" height="50" as="geometry" />
        </mxCell>
        <mxCell id="NPhOUV8jgAZbTIDMCQ0Y-77" value="club_id" style="ellipse;whiteSpace=wrap;html=1;fillColor=#dae8fc;strokeColor=#6c8ebf;" vertex="1" parent="1">
          <mxGeometry x="1217.5" y="559.5" width="100" height="50" as="geometry" />
        </mxCell>
        <mxCell id="NPhOUV8jgAZbTIDMCQ0Y-78" style="edgeStyle=orthogonalEdgeStyle;rounded=1;orthogonalLoop=1;jettySize=auto;html=1;endArrow=none;endFill=0;entryX=0;entryY=0.5;entryDx=0;entryDy=0;" edge="1" parent="1" target="NPhOUV8jgAZbTIDMCQ0Y-77">
          <mxGeometry relative="1" as="geometry">
            <mxPoint x="1167.5" y="270" as="sourcePoint" />
            <mxPoint x="1218" y="525" as="targetPoint" />
          </mxGeometry>
        </mxCell>
        <mxCell id="NPhOUV8jgAZbTIDMCQ0Y-84" style="edgeStyle=orthogonalEdgeStyle;rounded=0;orthogonalLoop=1;jettySize=auto;html=1;entryX=0.5;entryY=1;entryDx=0;entryDy=0;" edge="1" parent="1" source="NPhOUV8jgAZbTIDMCQ0Y-81" target="QMrgS0bzPgjpqa6_LQRn-20">
          <mxGeometry relative="1" as="geometry" />
        </mxCell>
        <mxCell id="NPhOUV8jgAZbTIDMCQ0Y-81" value="Связан" style="rhombus;whiteSpace=wrap;html=1;" vertex="1" parent="1">
          <mxGeometry x="940" y="490" width="80" height="80" as="geometry" />
        </mxCell>
        <mxCell id="NPhOUV8jgAZbTIDMCQ0Y-82" value="1" style="text;html=1;align=center;verticalAlign=middle;resizable=0;points=[];autosize=1;strokeColor=none;fillColor=none;" vertex="1" parent="1">
          <mxGeometry x="930" y="480" width="30" height="30" as="geometry" />
        </mxCell>
        <mxCell id="NPhOUV8jgAZbTIDMCQ0Y-83" value="n" style="text;html=1;align=center;verticalAlign=middle;resizable=0;points=[];autosize=1;strokeColor=none;fillColor=none;" vertex="1" parent="1">
          <mxGeometry x="1000" y="480" width="30" height="30" as="geometry" />
        </mxCell>
      </root>
    </mxGraphModel>
  </diagram>
  <diagram id="PT4vDze9JZOPhdgqWVBx" name="ER модель">
    <mxGraphModel dx="1224" dy="780" grid="1" gridSize="10" guides="1" tooltips="1" connect="1" arrows="1" fold="1" page="1" pageScale="1" pageWidth="827" pageHeight="1169" math="0" shadow="0">
      <root>
        <mxCell id="0" />
        <mxCell id="1" parent="0" />
        <mxCell id="0bwpkQajjsLK5veqmI_7-1" value="Клуб" style="rounded=0;whiteSpace=wrap;html=1;" vertex="1" parent="1">
          <mxGeometry x="290" y="370" width="120" height="60" as="geometry" />
        </mxCell>
      </root>
    </mxGraphModel>
  </diagram>
</mxfile>
